<?xml version="1.0" encoding="UTF-8"?>
<svg xmlns="http://www.w3.org/2000/svg" id="IDI_Logo" data-name="IDI Logo" viewBox="0 0 243 84.16">
  <defs>
    <style>.cls-1{fill:#605459;}.cls-2{opacity:0.6;}.cls-3{opacity:0.4;}.cls-4{fill:#4daabf;fill-rule:evenodd;}</style>
  </defs>
  <g id="Group_6" data-name="Group 6">
    <g id="Group_2" data-name="Group 2">
      <g id="Group_1" data-name="Group 1">
        <path id="Path_1" data-name="Path 1" class="cls-1" d="M90.47,28.38V28a2.62,2.62,0,0,0,1.66-.35,2.31,2.31,0,0,0,.35-1.45v-9a2.08,2.08,0,0,0-.35-1.39,2.92,2.92,0,0,0-1.66-.35V15h6v.35a3.32,3.32,0,0,0-1.52.34,1.86,1.86,0,0,0-.48,1.53v9c0,.76.2,1.32.48,1.46a2.53,2.53,0,0,0,1.52.34v.42Z"></path>
        <path id="Path_2" data-name="Path 2" class="cls-1" d="M102.8,15v.35a3,3,0,0,0-1.46.41c-.27.14-.41.63-.41,1.46v9.5c0,.42.14.7.41.77a6.62,6.62,0,0,0,1.6.14,11.25,11.25,0,0,0,3.46-.42c.76-.21,1.45-1,2-2.36H109l-1,3.54H97.12V28a1.92,1.92,0,0,0,1.31-.35c.28-.13.42-.69.42-1.45v-9c0-.77-.14-1.25-.42-1.39a2.11,2.11,0,0,0-1.31-.35V15Z"></path>
        <path id="Path_3" data-name="Path 3" class="cls-1" d="M115.13,15v.35a3,3,0,0,0-1.46.41c-.27.14-.41.63-.41,1.46v9.5c0,.42.14.7.41.77a6.62,6.62,0,0,0,1.6.14,11.25,11.25,0,0,0,3.46-.42c.76-.21,1.46-1,2-2.36h.55l-1,3.54H109.45V28a2.32,2.32,0,0,0,1.38-.35c.21-.13.35-.69.35-1.45v-9c0-.77-.14-1.25-.42-1.39a2.11,2.11,0,0,0-1.31-.35V15Z"></path>
        <path id="Path_4" data-name="Path 4" class="cls-1" d="M121.91,28.38V28a2.49,2.49,0,0,0,1.6-.35,2.3,2.3,0,0,0,.34-1.45v-9a2.07,2.07,0,0,0-.34-1.39,2.7,2.7,0,0,0-1.6-.35V15h6v.35a3.45,3.45,0,0,0-1.52.34c-.28.21-.42.7-.42,1.53v9c0,.76.14,1.32.42,1.46a2.68,2.68,0,0,0,1.52.34v.42Z"></path>
        <path id="Path_5" data-name="Path 5" class="cls-1" d="M142.49,15v.35a.07.07,0,0,0-.07.06h-.07a2.59,2.59,0,0,0-1.39.48c-.27.21-.41.9-.41,2.08V28.59h-.35l-8.86-11.1h-.07V25.4a3.58,3.58,0,0,0,.41,2.08,2.07,2.07,0,0,0,1.53.48v.42H128.5V28a1.93,1.93,0,0,0,1.52-.48,4,4,0,0,0,.35-2.08v-9a2,2,0,0,0-.49-.55,2.3,2.3,0,0,0-.41-.35,1.23,1.23,0,0,0-.42-.14h-.55V15h3.4l7.75,9.71V18a3.36,3.36,0,0,0-.41-2.15,2.94,2.94,0,0,0-1.53-.42V15Z"></path>
        <path id="Path_6" data-name="Path 6" class="cls-1" d="M150,28.65a6.34,6.34,0,0,1-4.64-1.87,6.55,6.55,0,0,1-1.94-5.06,6.52,6.52,0,0,1,6-7,5,5,0,0,1,.55,0,6.84,6.84,0,0,1,4.57,1.74,6.5,6.5,0,0,1,2.08,5.27,6.86,6.86,0,0,1-1.94,5.06A6.49,6.49,0,0,1,150,28.65Zm0-.76a3.75,3.75,0,0,0,3-1.39c.9-1,1.31-2.56,1.31-4.78S154,18,153.15,17.07a3.88,3.88,0,0,0-2.63-1.6h-.2a.41.41,0,0,0-.28-.07.27.27,0,0,0-.21.07h-.21a4,4,0,0,0-2.7,1.6,7.55,7.55,0,0,0-1.18,4.65c0,2.22.42,3.81,1.32,4.78A4,4,0,0,0,150,28Z"></path>
        <path id="Path_7" data-name="Path 7" class="cls-1" d="M157.73,28.38V28a2.48,2.48,0,0,0,1.59-.35,2.31,2.31,0,0,0,.35-1.45v-9a2.08,2.08,0,0,0-.35-1.39,2.68,2.68,0,0,0-1.59-.35V15h6v.35a3.52,3.52,0,0,0-1.53.34c-.28.21-.41.7-.41,1.53v9c0,.76.13,1.32.41,1.46a2.7,2.7,0,0,0,1.53.34v.42Z"></path>
        <path id="Path_8" data-name="Path 8" class="cls-1" d="M173.11,14.71l.41,4.3H173a.27.27,0,0,0-.07-.21.28.28,0,0,0-.07-.21,4.79,4.79,0,0,0-1.25-2.08,3.19,3.19,0,0,0-2.35-1h-.07a2.13,2.13,0,0,0-1.39.49,1.58,1.58,0,0,0-.62,1.38A2.06,2.06,0,0,0,168,19a17.67,17.67,0,0,0,1.73,1.25,3.43,3.43,0,0,0,.49.28,1.62,1.62,0,0,1,.41.27,14,14,0,0,1,2.29,1.67A3,3,0,0,1,174,25v.28a.52.52,0,0,0-.07.27,4.13,4.13,0,0,1-1.25,2.16,4.34,4.34,0,0,1-3,1,6,6,0,0,1-1-.14l-.9-.21c-.21-.06-.41-.13-.62-.21a2.12,2.12,0,0,0-.55-.14.65.65,0,0,0-.49.21,1.23,1.23,0,0,0-.14.42h-.41l-.63-4.23h.42a4.42,4.42,0,0,1,.34.69,4.36,4.36,0,0,0,.49.9,6,6,0,0,0,1.32,1.39,3,3,0,0,0,2,.62,2.53,2.53,0,0,0,1.8-.69,2.39,2.39,0,0,0,.62-1.39v-.69c-.07-.14-.07-.35-.14-.49a3.86,3.86,0,0,0-.9-1.11,23.5,23.5,0,0,0-2.22-1.45,1.25,1.25,0,0,0-.41-.28c-.14-.07-.21-.14-.35-.21a5.19,5.19,0,0,1-1.73-1.46,2.78,2.78,0,0,1-.69-2.08,3.3,3.3,0,0,1,1.1-2.57,4.17,4.17,0,0,1,2.5-.83h.07a2.15,2.15,0,0,1,.9.14c.27.07.55.14.76.21s.49.14.69.21a1.37,1.37,0,0,0,.49.13,1,1,0,0,0,.41-.13.94.94,0,0,0,.21-.28v-.14c0-.07.07-.07.07-.14Z"></path>
        <path id="Path_9" data-name="Path 9" class="cls-1" d="M90.47,46.42V46a2.13,2.13,0,0,0,1.45-.35,2.43,2.43,0,0,0,.28-1.45v-9c0-.77-.07-1.25-.28-1.46a2.73,2.73,0,0,0-1.45-.35V33h5.47a9.35,9.35,0,0,1,5.82,1.66A6.06,6.06,0,0,1,104,39.76c0,.34-.07.69-.07,1a6.94,6.94,0,0,1-.28,1.11A7.15,7.15,0,0,1,101.41,45a8.33,8.33,0,0,1-5.2,1.39Zm3.81-11.87V44.82c0,.35.07.62.27.7s.49.13,1,.13H96.7a10.19,10.19,0,0,0,1.8-.41,6,6,0,0,0,2.21-1.67,5.7,5.7,0,0,0,1.05-3.75,7.63,7.63,0,0,0-.42-2.5,5.43,5.43,0,0,0-1.45-2.15,4.9,4.9,0,0,0-1.74-1,8.16,8.16,0,0,0-2.9-.42c-.49,0-.77.07-.83.28a1.2,1.2,0,0,0-.14.49Z"></path>
        <path id="Path_10" data-name="Path 10" class="cls-1" d="M116.79,43l-.9,3.4h-11V46a3.18,3.18,0,0,0,1.39-.28c.28-.2.35-.69.35-1.52v-9c0-.84-.07-1.25-.35-1.46a3.18,3.18,0,0,0-1.39-.35V33h10.74l.07,2.91h-.48a3.07,3.07,0,0,0-.84-1.73,4.49,4.49,0,0,0-2.28-.42h-2.7a.87.87,0,0,0-.49.14c-.13,0-.2.21-.2.56V39h3.11c.9,0,1.46-.14,1.67-.42a3,3,0,0,0,.55-1.46v-.07h.48v4.72h-.48a1.71,1.71,0,0,0-2.22-1.94l-3.11-.07v5.06a.71.71,0,0,0,.41.76,17.91,17.91,0,0,0,2.64.07,5.54,5.54,0,0,0,2.77-.55A4,4,0,0,0,116.17,43Z"></path>
        <path id="Path_11" data-name="Path 11" class="cls-1" d="M130.3,46v.42h-3.19l-4.78-6.25-1.18.07v4a2.1,2.1,0,0,0,.34,1.38c.14.28.7.42,1.46.49v.35h-5.54V46c.83,0,1.31-.14,1.45-.42a4.13,4.13,0,0,0,.21-1.6V35.25c0-.77-.07-1.25-.28-1.46a3.48,3.48,0,0,0-1.38-.35V33H123a4.53,4.53,0,0,1,1,.07,5.2,5.2,0,0,1,1,.14,5.69,5.69,0,0,1,2.14,1,3,3,0,0,1,1,2.36,2.64,2.64,0,0,1-.62,1.94,4.87,4.87,0,0,1-1.39,1c-.35.07-.62.21-.9.28a3.91,3.91,0,0,1-.76.14l4.15,5.13a2.88,2.88,0,0,0,.77.62,2.23,2.23,0,0,0,1,.35V46Zm-9.15-11.52v5H122c.35,0,.63-.07,1-.07a4.69,4.69,0,0,0,2-.76,2.29,2.29,0,0,0,.9-2.09,2.32,2.32,0,0,0-.55-1.8,4.32,4.32,0,0,0-1.25-.76l-1-.21h-.69a3.35,3.35,0,0,0-1,.14q-.21.1-.21.63Z"></path>
        <path id="Path_12" data-name="Path 12" class="cls-1" d="M147.89,33v.41a2.32,2.32,0,0,0-1.38.35c-.28.21-.42.69-.42,1.46v9c0,.83.14,1.31.42,1.52a3.85,3.85,0,0,0,1.38.35v.34h-5.68V46c.83,0,1.32-.14,1.53-.42a2.55,2.55,0,0,0,.34-1.6V34.9H144l-5.12,11.52h-.28l-5.06-11v8a4.53,4.53,0,0,0,.35,2.09,2.08,2.08,0,0,0,1.52.55v.35h-4.71V46a2.08,2.08,0,0,0,1.53-.49,3.28,3.28,0,0,0,.41-2.08V35.25c0-.84-.14-1.32-.41-1.46a2.64,2.64,0,0,0-1.53-.35V33h4l4.64,10.2,4.5-10.2Z"></path>
        <path id="Path_13" data-name="Path 13" class="cls-1" d="M162.65,46v.42h-5.13V46a2.14,2.14,0,0,0,1-.07.54.54,0,0,0,.41-.62V45c-.06-.14-.06-.28-.13-.35v-.14c-.07-.07-.07-.07-.07-.14s-.07-.13-.07-.2a.25.25,0,0,1-.07-.21l-.83-1.94h-5.34l-.9,2.35c0,.07,0,.07-.07.14v.07a.7.7,0,0,0-.06.35v.21a.83.83,0,0,0,.2.62.77.77,0,0,0,.56.21.53.53,0,0,0,.28.07h.27v.35h-3.94V46a1.33,1.33,0,0,0,.48-.07c.21,0,.35-.14.55-.35a2.71,2.71,0,0,0,.28-.41,4.18,4.18,0,0,0,.28-.56,1.94,1.94,0,0,0,.21-.34c.07-.14.07-.21.14-.35a2.5,2.5,0,0,0,.27-.63,3.55,3.55,0,0,0,.28-.55l4.16-10h.41l5.06,11.52a7.43,7.43,0,0,0,.35.76c.07.14.2.35.27.49a1.3,1.3,0,0,0,.49.41,1.81,1.81,0,0,0,.69.14V46Zm-9.91-4.79h4.71l-2.35-5.55Z"></path>
        <path id="Path_14" data-name="Path 14" class="cls-1" d="M169.85,46v.42H164V46c.9,0,1.46-.14,1.67-.42a4.54,4.54,0,0,0,.2-1.6V33.86h-1a4.39,4.39,0,0,0-2.28.48,4.14,4.14,0,0,0-1,2.16h-.49l.14-3.47h11.43l.07,3.47h-.48a3.61,3.61,0,0,0-.9-2.16,4.54,4.54,0,0,0-2.29-.41l-1.11-.07V44.2a2.39,2.39,0,0,0,.35,1.45,2.88,2.88,0,0,0,1.59.42Z"></path>
        <path id="Path_15" data-name="Path 15" class="cls-1" d="M180,46.69a7.18,7.18,0,0,1-4.57-12.21,6.81,6.81,0,0,1,9.08,0A7,7,0,0,1,180,46.69Zm0-.69a4,4,0,0,0,3-1.46,7.33,7.33,0,0,0,1.32-4.78c0-2.16-.42-3.68-1.25-4.65a4,4,0,0,0-2.63-1.6h-.9a3.94,3.94,0,0,0-2.63,1.6,7,7,0,0,0-1.25,4.65A7.27,7.27,0,0,0,177,44.54,4,4,0,0,0,180,46Z"></path>
        <path id="Path_16" data-name="Path 16" class="cls-1" d="M193.19,33v.41a2.73,2.73,0,0,0-1.45.35c-.28.14-.42.69-.42,1.46v9.57c0,.42.14.62.42.69a7.17,7.17,0,0,0,1.66.14,10.54,10.54,0,0,0,3.4-.41c.83-.21,1.45-1,2.08-2.29l.48-.07-1,3.53H187.51V46a3,3,0,0,0,1.39-.28c.28-.21.42-.69.42-1.53V35.25c0-.84-.14-1.25-.42-1.46a3.18,3.18,0,0,0-1.39-.35V33Z"></path>
        <path id="Path_17" data-name="Path 17" class="cls-1" d="M206.91,46.69a6.35,6.35,0,0,1-4.64-1.87,6.5,6.5,0,0,1-1.94-5.06,6.73,6.73,0,0,1,2-5.28,6.89,6.89,0,0,1,9.14,0,7.85,7.85,0,0,1,.14,10.34,6.51,6.51,0,0,1-4.71,1.87Zm0-.69a3.87,3.87,0,0,0,3-1.46c.9-1,1.31-2.56,1.31-4.78A7.48,7.48,0,0,0,210,35.11a4.13,4.13,0,0,0-2.63-1.6h-1a4.33,4.33,0,0,0-2.64,1.6,7.48,7.48,0,0,0-1.17,4.65c0,2.22.41,3.81,1.31,4.78A4,4,0,0,0,206.91,46Z"></path>
        <path id="Path_18" data-name="Path 18" class="cls-1" d="M228.52,39.27v.35h-.06a2.7,2.7,0,0,0-1,.27c-.28.21-.35.63-.35,1.32v4c0,.07-.14.2-.35.34s-.6.22-.9.35l-1.24.42a12.09,12.09,0,0,1-1.46.27c-.14,0-.34.07-.48.07h-1.18c-.28,0-.49-.07-.77-.07a9.22,9.22,0,0,1-2.28-.69,5.58,5.58,0,0,1-1.94-1.39,5.77,5.77,0,0,1-1.25-1.94,8.56,8.56,0,0,1-.41-3.05,7,7,0,0,1,1.8-4.65,6.25,6.25,0,0,1,5-2.15,7.2,7.2,0,0,1,1.39.14l1,.2.76.21a1.54,1.54,0,0,0,.56.14h.13c.14-.07.21-.07.28-.14s.21-.07.35-.21a.51.51,0,0,0,.13-.34h.49l.14,4.23h-.49a1,1,0,0,0-.2-.42c-.07-.2-.14-.34-.21-.55a5.2,5.2,0,0,0-1.39-1.67,4.17,4.17,0,0,0-2.63-.76,3.26,3.26,0,0,0-.76.07l-.83.21a5.65,5.65,0,0,0-2.29,1.87,7.64,7.64,0,0,0-1,4.23,6.45,6.45,0,0,0,1.46,4.38,4.9,4.9,0,0,0,3.74,1.59h.07a5.11,5.11,0,0,0,1.86-.34c.56-.21.84-.49.84-.9V41.42c0-.83-.07-1.32-.28-1.46a2.73,2.73,0,0,0-1.32-.34h-.13v-.35Z"></path>
        <path id="Path_19" data-name="Path 19" class="cls-1" d="M243,33v.41h-.21a4.05,4.05,0,0,0-1,.42,8.13,8.13,0,0,0-1.59,1.87l-3,4.58V44.2c0,.76.14,1.24.42,1.45s.76.42,1.66.42v.35h-6.17V46c1,0,1.6-.14,1.8-.42a3.81,3.81,0,0,0,.28-1.6V40.45l-2.7-3.89c-.76-1.11-1.32-1.87-1.66-2.28a4.22,4.22,0,0,0-1-.77.4.4,0,0,1-.28-.07h-.34V33h5.68v.41h-.14a3.16,3.16,0,0,0-1,.14.47.47,0,0,0-.35.49.25.25,0,0,0,.07.2c0,.07.07.14.07.28a.27.27,0,0,1,.07.21c.07.07.07.14.14.14l3,4.51,2.92-4.58a1.51,1.51,0,0,0,.2-.35.83.83,0,0,0,.07-.41.52.52,0,0,0-.34-.49,2.54,2.54,0,0,0-.76-.14h-.28V33Z"></path>
        <path id="Path_20" data-name="Path 20" class="cls-1" d="M90.47,64.45v-.34c.9-.07,1.45-.14,1.66-.42a2.12,2.12,0,0,0,.35-1.39v-9a2.2,2.2,0,0,0-.35-1.46,3.81,3.81,0,0,0-1.66-.35v-.41h6v.41a2.61,2.61,0,0,0-1.52.35c-.28.14-.48.69-.48,1.46v8.94A1.86,1.86,0,0,0,95,63.76a2.53,2.53,0,0,0,1.52.34v.35Z"></path>
        <path id="Path_21" data-name="Path 21" class="cls-1" d="M111.11,51.07v.41H111a3.18,3.18,0,0,0-1.39.49,3.35,3.35,0,0,0-.41,2.08V64.66h-.35l-8.93-11v7.84a3.42,3.42,0,0,0,.41,2.08,1.71,1.71,0,0,0,1.46.56v.34H97.12v-.34a2.47,2.47,0,0,0,1.52-.49,3.65,3.65,0,0,0,.42-2.08V52.59A5.5,5.5,0,0,0,98.5,52a2.68,2.68,0,0,0-.48-.35c-.14-.07-.28-.07-.42-.14h-.48v-.41h3.46l7.69,9.71h.07V54.05c0-1.11-.14-1.87-.49-2.08a2.39,2.39,0,0,0-1.45-.49v-.41Z"></path>
        <path id="Path_22" data-name="Path 22" class="cls-1" d="M120.46,50.79l.42,4.3h-.48c0-.07,0-.07-.07-.14v-.2A5.82,5.82,0,0,0,119,52.6a3.2,3.2,0,0,0-2.35-1h-.07a3.46,3.46,0,0,0-1.39.49,1.8,1.8,0,0,0-.62,1.46,2.27,2.27,0,0,0,.76,1.59,12.31,12.31,0,0,0,1.8,1.25l.41.21a1.92,1.92,0,0,0,.42.28,15.38,15.38,0,0,1,2.36,1.73,3.17,3.17,0,0,1,1,2.5v.28c0,.07-.06.14-.06.21a3.62,3.62,0,0,1-1.25,2.15,4,4,0,0,1-3,1,5.2,5.2,0,0,1-1-.07c-.28-.07-.62-.14-.83-.21a4.12,4.12,0,0,0-.69-.27,1.77,1.77,0,0,0-.56-.08.56.56,0,0,0-.41.14.63.63,0,0,0-.21.42v.07h-.42l-.62-4.3h.49a4.89,4.89,0,0,0,.27.76c.14.28.28.56.49.9a6.07,6.07,0,0,0,1.31,1.32,3.24,3.24,0,0,0,2,.63,2.51,2.51,0,0,0,1.8-.63,2,2,0,0,0,.62-1.45v-.7a1,1,0,0,0-.14-.41,2.6,2.6,0,0,0-.9-1.12A17.77,17.77,0,0,0,116,58.22l-.41-.21a2.5,2.5,0,0,0-.35-.21,9.58,9.58,0,0,1-1.73-1.45,3.42,3.42,0,0,1-.7-2.09A3,3,0,0,1,114,51.7a4.28,4.28,0,0,1,2.42-.9h.07a3,3,0,0,1,.9.14l.76.2a3.79,3.79,0,0,0,.7.28,1.12,1.12,0,0,0,.48.07.87.87,0,0,0,.42-.07,1.1,1.1,0,0,1,.2-.28v-.2c.07,0,.07-.07.07-.14Z"></path>
        <path id="Path_23" data-name="Path 23" class="cls-1" d="M131.75,64.11v.35h-5.89v-.35c1-.07,1.53-.21,1.67-.49a2.85,2.85,0,0,0,.27-1.52V51.9h-1.1a5,5,0,0,0-2.29.48,4.16,4.16,0,0,0-.9,2.15H123l.07-3.47h11.35l.14,3.47h-.48a3.7,3.7,0,0,0-1-2.15,4.51,4.51,0,0,0-2.29-.42l-1-.06V62.23a2.48,2.48,0,0,0,.28,1.46c.21.28.69.41,1.59.41Z"></path>
        <path id="Path_24" data-name="Path 24" class="cls-1" d="M135.29,64.45v-.34c.9-.07,1.38-.14,1.66-.42a2.25,2.25,0,0,0,.28-1.39v-9c0-.77-.08-1.25-.35-1.46a3.14,3.14,0,0,0-1.59-.35v-.41h6v.41a3.05,3.05,0,0,0-1.6.35c-.27.14-.41.69-.41,1.46v8.94c0,.83.14,1.32.41,1.53a3,3,0,0,0,1.6.34v.35Z"></path>
        <path id="Path_25" data-name="Path 25" class="cls-1" d="M150.8,64.11v.35h-5.89v-.35c.9-.07,1.46-.21,1.6-.49a2.75,2.75,0,0,0,.27-1.52V51.9h-1.1a4.37,4.37,0,0,0-2.22.48,3.7,3.7,0,0,0-1,2.15H142l.14-3.47H153.5l.14,3.47h-.48a3.7,3.7,0,0,0-1-2.15A4.12,4.12,0,0,0,149.9,52l-1-.06V62.23c0,.77.07,1.18.35,1.46s.69.41,1.59.41Z"></path>
        <path id="Path_26" data-name="Path 26" class="cls-1" d="M168.25,51.07v.41a2.43,2.43,0,0,0-1.59.56,4,4,0,0,0-.35,2v6.38a7.52,7.52,0,0,1-.27,1.25,4.35,4.35,0,0,1-1.39,2.15,5.26,5.26,0,0,1-3.53.9,5.05,5.05,0,0,1-3.25-.83A4.61,4.61,0,0,1,156.41,62a6,6,0,0,1-.28-1.39c0-.42-.06-.76-.06-1V53.29c0-.77-.07-1.18-.28-1.39a3.17,3.17,0,0,0-1.53-.42v-.41H160v.41a2.63,2.63,0,0,0-1.52.42,2.08,2.08,0,0,0-.35,1.39v7.28c.07.28.07.63.14,1a3.62,3.62,0,0,0,1,1.6,3.24,3.24,0,0,0,2.42.76,3.79,3.79,0,0,0,2-.48A3.56,3.56,0,0,0,165,62.31a3.67,3.67,0,0,0,.28-1,6.38,6.38,0,0,0,.14-1.8V54.06A3.69,3.69,0,0,0,165,52a2.45,2.45,0,0,0-1.45-.48v-.42Z"></path>
        <path id="Path_27" data-name="Path 27" class="cls-1" d="M177.68,64.11v.35h-5.89v-.35c.9-.07,1.46-.21,1.66-.49a3.6,3.6,0,0,0,.28-1.52V51.9h-1.11a5,5,0,0,0-2.28.48,4,4,0,0,0-1,2.15h-.49l.14-3.47h11.43l.07,3.47H180a3.7,3.7,0,0,0-.9-2.15,4.53,4.53,0,0,0-2.29-.42l-1.11-.06V62.23a2.42,2.42,0,0,0,.35,1.46c.21.28.76.41,1.59.41Z"></path>
        <path id="Path_28" data-name="Path 28" class="cls-1" d="M193,61.06l-.9,3.4h-11v-.35a3.08,3.08,0,0,0,1.39-.35c.27-.21.34-.69.34-1.45v-9c0-.77-.07-1.25-.34-1.46a4.44,4.44,0,0,0-1.39-.35v-.41h10.74L192,54h-.49a3,3,0,0,0-.83-1.73,4.59,4.59,0,0,0-2.28-.35l-2.7-.07c-.21.07-.42.07-.49.14s-.21.21-.21.62V57h3.12c.9,0,1.46-.14,1.66-.41a2.89,2.89,0,0,0,.56-1.46l.48-.07v4.72h-.48c-.14-.83-.28-1.32-.56-1.53a2.84,2.84,0,0,0-1.66-.41H185v5c0,.41.14.69.42.76a21,21,0,0,0,2.63.07,4.85,4.85,0,0,0,2.77-.56,4.3,4.3,0,0,0,1.66-2.08Z"></path>
      </g>
    </g>
    <g id="Group_5" data-name="Group 5">
      <g id="Group_4" data-name="Group 4" class="cls-2">
        <g id="Group_3" data-name="Group 3">
          <path id="Path_29" data-name="Path 29" class="cls-1" d="M90.47,28.38V28a2.62,2.62,0,0,0,1.66-.35,2.31,2.31,0,0,0,.35-1.45v-9a2.08,2.08,0,0,0-.35-1.39,2.92,2.92,0,0,0-1.66-.35V15h6v.35a3.32,3.32,0,0,0-1.52.34,1.86,1.86,0,0,0-.48,1.53v9c0,.76.2,1.32.48,1.46a2.53,2.53,0,0,0,1.52.34v.42Z"></path>
          <path id="Path_30" data-name="Path 30" class="cls-1" d="M102.8,15v.35a3,3,0,0,0-1.46.41c-.27.14-.41.63-.41,1.46v9.5c0,.42.14.7.41.77a6.62,6.62,0,0,0,1.6.14,11.25,11.25,0,0,0,3.46-.42c.76-.21,1.45-1,2-2.36H109l-1,3.54H97.12V28a1.92,1.92,0,0,0,1.31-.35c.28-.13.42-.69.42-1.45v-9c0-.77-.14-1.25-.42-1.39a2.11,2.11,0,0,0-1.31-.35V15Z"></path>
          <path id="Path_31" data-name="Path 31" class="cls-1" d="M115.13,15v.35a3,3,0,0,0-1.46.41c-.27.14-.41.63-.41,1.46v9.5c0,.42.14.7.41.77a6.62,6.62,0,0,0,1.6.14,11.25,11.25,0,0,0,3.46-.42c.76-.21,1.46-1,2-2.36h.55l-1,3.54H109.45V28a2.32,2.32,0,0,0,1.38-.35c.21-.13.35-.69.35-1.45v-9c0-.77-.14-1.25-.42-1.39a2.11,2.11,0,0,0-1.31-.35V15Z"></path>
          <path id="Path_32" data-name="Path 32" class="cls-1" d="M121.91,28.38V28a2.49,2.49,0,0,0,1.6-.35,2.3,2.3,0,0,0,.34-1.45v-9a2.07,2.07,0,0,0-.34-1.39,2.7,2.7,0,0,0-1.6-.35V15h6v.35a3.45,3.45,0,0,0-1.52.34c-.28.21-.42.7-.42,1.53v9c0,.76.14,1.32.42,1.46a2.68,2.68,0,0,0,1.52.34v.42Z"></path>
          <path id="Path_33" data-name="Path 33" class="cls-1" d="M142.49,15v.35a.07.07,0,0,0-.07.06h-.07a2.59,2.59,0,0,0-1.39.48c-.27.21-.41.9-.41,2.08V28.59h-.35l-8.86-11.1h-.07V25.4a3.58,3.58,0,0,0,.41,2.08,2.07,2.07,0,0,0,1.53.48v.42H128.5V28a1.93,1.93,0,0,0,1.52-.48,4,4,0,0,0,.35-2.08v-9a2,2,0,0,0-.49-.55,2.3,2.3,0,0,0-.41-.35,1.23,1.23,0,0,0-.42-.14h-.55V15h3.4l7.75,9.71V18a3.36,3.36,0,0,0-.41-2.15,2.94,2.94,0,0,0-1.53-.42V15Z"></path>
          <path id="Path_34" data-name="Path 34" class="cls-1" d="M150,28.65a6.34,6.34,0,0,1-4.64-1.87,6.55,6.55,0,0,1-1.94-5.06,6.52,6.52,0,0,1,6-7,5,5,0,0,1,.55,0,6.84,6.84,0,0,1,4.57,1.74,6.5,6.5,0,0,1,2.08,5.27,6.86,6.86,0,0,1-1.94,5.06A6.49,6.49,0,0,1,150,28.65Zm0-.76a3.75,3.75,0,0,0,3-1.39c.9-1,1.31-2.56,1.31-4.78S154,18,153.15,17.07a3.88,3.88,0,0,0-2.63-1.6h-.2a.41.41,0,0,0-.28-.07.27.27,0,0,0-.21.07h-.21a4,4,0,0,0-2.7,1.6,7.55,7.55,0,0,0-1.18,4.65c0,2.22.42,3.81,1.32,4.78A4,4,0,0,0,150,28Z"></path>
          <path id="Path_35" data-name="Path 35" class="cls-1" d="M157.73,28.38V28a2.48,2.48,0,0,0,1.59-.35,2.31,2.31,0,0,0,.35-1.45v-9a2.08,2.08,0,0,0-.35-1.39,2.68,2.68,0,0,0-1.59-.35V15h6v.35a3.52,3.52,0,0,0-1.53.34c-.28.21-.41.7-.41,1.53v9c0,.76.13,1.32.41,1.46a2.7,2.7,0,0,0,1.53.34v.42Z"></path>
          <path id="Path_36" data-name="Path 36" class="cls-1" d="M173.11,14.71l.41,4.3H173a.27.27,0,0,0-.07-.21.28.28,0,0,0-.07-.21,4.79,4.79,0,0,0-1.25-2.08,3.19,3.19,0,0,0-2.35-1h-.07a2.13,2.13,0,0,0-1.39.49,1.58,1.58,0,0,0-.62,1.38A2.06,2.06,0,0,0,168,19a17.67,17.67,0,0,0,1.73,1.25,3.43,3.43,0,0,0,.49.28,1.62,1.62,0,0,1,.41.27,14,14,0,0,1,2.29,1.67A3,3,0,0,1,174,25v.28a.52.52,0,0,0-.07.27,4.13,4.13,0,0,1-1.25,2.16,4.34,4.34,0,0,1-3,1,6,6,0,0,1-1-.14l-.9-.21c-.21-.06-.41-.13-.62-.21a2.12,2.12,0,0,0-.55-.14.65.65,0,0,0-.49.21,1.23,1.23,0,0,0-.14.42h-.41l-.63-4.23h.42a4.42,4.42,0,0,1,.34.69,4.36,4.36,0,0,0,.49.9,6,6,0,0,0,1.32,1.39,3,3,0,0,0,2,.62,2.53,2.53,0,0,0,1.8-.69,2.39,2.39,0,0,0,.62-1.39v-.69c-.07-.14-.07-.35-.14-.49a3.86,3.86,0,0,0-.9-1.11,23.5,23.5,0,0,0-2.22-1.45,1.25,1.25,0,0,0-.41-.28c-.14-.07-.21-.14-.35-.21a5.19,5.19,0,0,1-1.73-1.46,2.78,2.78,0,0,1-.69-2.08,3.3,3.3,0,0,1,1.1-2.57,4.17,4.17,0,0,1,2.5-.83h.07a2.15,2.15,0,0,1,.9.14c.27.07.55.14.76.21s.49.14.69.21a1.37,1.37,0,0,0,.49.13,1,1,0,0,0,.41-.13.94.94,0,0,0,.21-.28v-.14c0-.07.07-.07.07-.14Z"></path>
          <path id="Path_37" data-name="Path 37" class="cls-1" d="M90.47,46.42V46a2.13,2.13,0,0,0,1.45-.35,2.43,2.43,0,0,0,.28-1.45v-9c0-.77-.07-1.25-.28-1.46a2.73,2.73,0,0,0-1.45-.35V33h5.47a9.35,9.35,0,0,1,5.82,1.66A6.06,6.06,0,0,1,104,39.76c0,.34-.07.69-.07,1a6.94,6.94,0,0,1-.28,1.11A7.15,7.15,0,0,1,101.41,45a8.33,8.33,0,0,1-5.2,1.39Zm3.81-11.87V44.82c0,.35.07.62.27.7s.49.13,1,.13H96.7a10.19,10.19,0,0,0,1.8-.41,6,6,0,0,0,2.21-1.67,5.7,5.7,0,0,0,1.05-3.75,7.63,7.63,0,0,0-.42-2.5,5.43,5.43,0,0,0-1.45-2.15,4.9,4.9,0,0,0-1.74-1,8.16,8.16,0,0,0-2.9-.42c-.49,0-.77.07-.83.28a1.2,1.2,0,0,0-.14.49Z"></path>
          <path id="Path_38" data-name="Path 38" class="cls-1" d="M116.79,43l-.9,3.4h-11V46a3.18,3.18,0,0,0,1.39-.28c.28-.2.35-.69.35-1.52v-9c0-.84-.07-1.25-.35-1.46a3.18,3.18,0,0,0-1.39-.35V33h10.74l.07,2.91h-.48a3.07,3.07,0,0,0-.84-1.73,4.49,4.49,0,0,0-2.28-.42h-2.7a.87.87,0,0,0-.49.14c-.13,0-.2.21-.2.56V39h3.11c.9,0,1.46-.14,1.67-.42a3,3,0,0,0,.55-1.46v-.07h.48v4.72h-.48a1.71,1.71,0,0,0-2.22-1.94l-3.11-.07v5.06a.71.71,0,0,0,.41.76,17.91,17.91,0,0,0,2.64.07,5.54,5.54,0,0,0,2.77-.55A4,4,0,0,0,116.17,43Z"></path>
          <path id="Path_39" data-name="Path 39" class="cls-1" d="M130.3,46v.42h-3.19l-4.78-6.25-1.18.07v4a2.1,2.1,0,0,0,.34,1.38c.14.28.7.42,1.46.49v.35h-5.54V46c.83,0,1.31-.14,1.45-.42a4.13,4.13,0,0,0,.21-1.6V35.25c0-.77-.07-1.25-.28-1.46a3.48,3.48,0,0,0-1.38-.35V33H123a4.53,4.53,0,0,1,1,.07,5.2,5.2,0,0,1,1,.14,5.69,5.69,0,0,1,2.14,1,3,3,0,0,1,1,2.36,2.64,2.64,0,0,1-.62,1.94,4.87,4.87,0,0,1-1.39,1c-.35.07-.62.21-.9.28a3.91,3.91,0,0,1-.76.14l4.15,5.13a2.88,2.88,0,0,0,.77.62,2.23,2.23,0,0,0,1,.35V46Zm-9.15-11.52v5H122c.35,0,.63-.07,1-.07a4.69,4.69,0,0,0,2-.76,2.29,2.29,0,0,0,.9-2.09,2.32,2.32,0,0,0-.55-1.8,4.32,4.32,0,0,0-1.25-.76l-1-.21h-.69a3.35,3.35,0,0,0-1,.14q-.21.1-.21.63Z"></path>
          <path id="Path_40" data-name="Path 40" class="cls-1" d="M147.89,33v.41a2.32,2.32,0,0,0-1.38.35c-.28.21-.42.69-.42,1.46v9c0,.83.14,1.31.42,1.52a3.85,3.85,0,0,0,1.38.35v.34h-5.68V46c.83,0,1.32-.14,1.53-.42a2.55,2.55,0,0,0,.34-1.6V34.9H144l-5.12,11.52h-.28l-5.06-11v8a4.53,4.53,0,0,0,.35,2.09,2.08,2.08,0,0,0,1.52.55v.35h-4.71V46a2.08,2.08,0,0,0,1.53-.49,3.28,3.28,0,0,0,.41-2.08V35.25c0-.84-.14-1.32-.41-1.46a2.64,2.64,0,0,0-1.53-.35V33h4l4.64,10.2,4.5-10.2Z"></path>
          <path id="Path_41" data-name="Path 41" class="cls-1" d="M162.65,46v.42h-5.13V46a2.14,2.14,0,0,0,1-.07.54.54,0,0,0,.41-.62V45c-.06-.14-.06-.28-.13-.35v-.14c-.07-.07-.07-.07-.07-.14s-.07-.13-.07-.2a.25.25,0,0,1-.07-.21l-.83-1.94h-5.34l-.9,2.35c0,.07,0,.07-.07.14v.07a.7.7,0,0,0-.06.35v.21a.83.83,0,0,0,.2.62.77.77,0,0,0,.56.21.53.53,0,0,0,.28.07h.27v.35h-3.94V46a1.33,1.33,0,0,0,.48-.07c.21,0,.35-.14.55-.35a2.71,2.71,0,0,0,.28-.41,4.18,4.18,0,0,0,.28-.56,1.94,1.94,0,0,0,.21-.34c.07-.14.07-.21.14-.35a2.5,2.5,0,0,0,.27-.63,3.55,3.55,0,0,0,.28-.55l4.16-10h.41l5.06,11.52a7.43,7.43,0,0,0,.35.76c.07.14.2.35.27.49a1.3,1.3,0,0,0,.49.41,1.81,1.81,0,0,0,.69.14V46Zm-9.91-4.79h4.71l-2.35-5.55Z"></path>
          <path id="Path_42" data-name="Path 42" class="cls-1" d="M169.85,46v.42H164V46c.9,0,1.46-.14,1.67-.42a4.54,4.54,0,0,0,.2-1.6V33.86h-1a4.39,4.39,0,0,0-2.28.48,4.14,4.14,0,0,0-1,2.16h-.49l.14-3.47h11.43l.07,3.47h-.48a3.61,3.61,0,0,0-.9-2.16,4.54,4.54,0,0,0-2.29-.41l-1.11-.07V44.2a2.39,2.39,0,0,0,.35,1.45,2.88,2.88,0,0,0,1.59.42Z"></path>
          <path id="Path_43" data-name="Path 43" class="cls-1" d="M180,46.69a7.18,7.18,0,0,1-4.57-12.21,6.81,6.81,0,0,1,9.08,0A7,7,0,0,1,180,46.69Zm0-.69a4,4,0,0,0,3-1.46,7.33,7.33,0,0,0,1.32-4.78c0-2.16-.42-3.68-1.25-4.65a4,4,0,0,0-2.63-1.6h-.9a3.94,3.94,0,0,0-2.63,1.6,7,7,0,0,0-1.25,4.65A7.27,7.27,0,0,0,177,44.54,4,4,0,0,0,180,46Z"></path>
          <path id="Path_44" data-name="Path 44" class="cls-1" d="M193.19,33v.41a2.73,2.73,0,0,0-1.45.35c-.28.14-.42.69-.42,1.46v9.57c0,.42.14.62.42.69a7.17,7.17,0,0,0,1.66.14,10.54,10.54,0,0,0,3.4-.41c.83-.21,1.45-1,2.08-2.29l.48-.07-1,3.53H187.51V46a3,3,0,0,0,1.39-.28c.28-.21.42-.69.42-1.53V35.25c0-.84-.14-1.25-.42-1.46a3.18,3.18,0,0,0-1.39-.35V33Z"></path>
          <path id="Path_45" data-name="Path 45" class="cls-1" d="M206.91,46.69a6.35,6.35,0,0,1-4.64-1.87,6.5,6.5,0,0,1-1.94-5.06,6.73,6.73,0,0,1,2-5.28,6.89,6.89,0,0,1,9.14,0,7.85,7.85,0,0,1,.14,10.34,6.51,6.51,0,0,1-4.71,1.87Zm0-.69a3.87,3.87,0,0,0,3-1.46c.9-1,1.31-2.56,1.31-4.78A7.48,7.48,0,0,0,210,35.11a4.13,4.13,0,0,0-2.63-1.6h-1a4.33,4.33,0,0,0-2.64,1.6,7.48,7.48,0,0,0-1.17,4.65c0,2.22.41,3.81,1.31,4.78A4,4,0,0,0,206.91,46Z"></path>
          <path id="Path_46" data-name="Path 46" class="cls-1" d="M228.52,39.27v.35h-.06a2.7,2.7,0,0,0-1,.27c-.28.21-.35.63-.35,1.32v4c0,.07-.14.2-.35.34s-.6.22-.9.35l-1.24.42a12.09,12.09,0,0,1-1.46.27c-.14,0-.34.07-.48.07h-1.18c-.28,0-.49-.07-.77-.07a9.22,9.22,0,0,1-2.28-.69,5.58,5.58,0,0,1-1.94-1.39,5.77,5.77,0,0,1-1.25-1.94,8.56,8.56,0,0,1-.41-3.05,7,7,0,0,1,1.8-4.65,6.25,6.25,0,0,1,5-2.15,7.2,7.2,0,0,1,1.39.14l1,.2.76.21a1.54,1.54,0,0,0,.56.14h.13c.14-.07.21-.07.28-.14s.21-.07.35-.21a.51.51,0,0,0,.13-.34h.49l.14,4.23h-.49a1,1,0,0,0-.2-.42c-.07-.2-.14-.34-.21-.55a5.2,5.2,0,0,0-1.39-1.67,4.17,4.17,0,0,0-2.63-.76,3.26,3.26,0,0,0-.76.07l-.83.21a5.65,5.65,0,0,0-2.29,1.87,7.64,7.64,0,0,0-1,4.23,6.45,6.45,0,0,0,1.46,4.38,4.9,4.9,0,0,0,3.74,1.59h.07a5.11,5.11,0,0,0,1.86-.34c.56-.21.84-.49.84-.9V41.42c0-.83-.07-1.32-.28-1.46a2.73,2.73,0,0,0-1.32-.34h-.13v-.35Z"></path>
          <path id="Path_47" data-name="Path 47" class="cls-1" d="M243,33v.41h-.21a4.05,4.05,0,0,0-1,.42,8.13,8.13,0,0,0-1.59,1.87l-3,4.58V44.2c0,.76.14,1.24.42,1.45s.76.42,1.66.42v.35h-6.17V46c1,0,1.6-.14,1.8-.42a3.81,3.81,0,0,0,.28-1.6V40.45l-2.7-3.89c-.76-1.11-1.32-1.87-1.66-2.28a4.22,4.22,0,0,0-1-.77.4.4,0,0,1-.28-.07h-.34V33h5.68v.41h-.14a3.16,3.16,0,0,0-1,.14.47.47,0,0,0-.35.49.25.25,0,0,0,.07.2c0,.07.07.14.07.28a.27.27,0,0,1,.07.21c.07.07.07.14.14.14l3,4.51,2.92-4.58a1.51,1.51,0,0,0,.2-.35.83.83,0,0,0,.07-.41.52.52,0,0,0-.34-.49,2.54,2.54,0,0,0-.76-.14h-.28V33Z"></path>
          <path id="Path_48" data-name="Path 48" class="cls-1" d="M90.47,64.45v-.34c.9-.07,1.45-.14,1.66-.42a2.12,2.12,0,0,0,.35-1.39v-9a2.2,2.2,0,0,0-.35-1.46,3.81,3.81,0,0,0-1.66-.35v-.41h6v.41a2.61,2.61,0,0,0-1.52.35c-.28.14-.48.69-.48,1.46v8.94A1.86,1.86,0,0,0,95,63.76a2.53,2.53,0,0,0,1.52.34v.35Z"></path>
          <path id="Path_49" data-name="Path 49" class="cls-1" d="M111.11,51.07v.41H111a3.18,3.18,0,0,0-1.39.49,3.35,3.35,0,0,0-.41,2.08V64.66h-.35l-8.93-11v7.84a3.42,3.42,0,0,0,.41,2.08,1.71,1.71,0,0,0,1.46.56v.34H97.12v-.34a2.47,2.47,0,0,0,1.52-.49,3.65,3.65,0,0,0,.42-2.08V52.59A5.5,5.5,0,0,0,98.5,52a2.68,2.68,0,0,0-.48-.35c-.14-.07-.28-.07-.42-.14h-.48v-.41h3.46l7.69,9.71h.07V54.05c0-1.11-.14-1.87-.49-2.08a2.39,2.39,0,0,0-1.45-.49v-.41Z"></path>
          <path id="Path_50" data-name="Path 50" class="cls-1" d="M120.46,50.79l.42,4.3h-.48c0-.07,0-.07-.07-.14v-.2A5.82,5.82,0,0,0,119,52.6a3.2,3.2,0,0,0-2.35-1h-.07a3.46,3.46,0,0,0-1.39.49,1.8,1.8,0,0,0-.62,1.46,2.27,2.27,0,0,0,.76,1.59,12.31,12.31,0,0,0,1.8,1.25l.41.21a1.92,1.92,0,0,0,.42.28,15.38,15.38,0,0,1,2.36,1.73,3.17,3.17,0,0,1,1,2.5v.28c0,.07-.06.14-.06.21a3.62,3.62,0,0,1-1.25,2.15,4,4,0,0,1-3,1,5.2,5.2,0,0,1-1-.07c-.28-.07-.62-.14-.83-.21a4.12,4.12,0,0,0-.69-.27,1.77,1.77,0,0,0-.56-.08.56.56,0,0,0-.41.14.63.63,0,0,0-.21.42v.07h-.42l-.62-4.3h.49a4.89,4.89,0,0,0,.27.76c.14.28.28.56.49.9a6.07,6.07,0,0,0,1.31,1.32,3.24,3.24,0,0,0,2,.63,2.51,2.51,0,0,0,1.8-.63,2,2,0,0,0,.62-1.45v-.7a1,1,0,0,0-.14-.41,2.6,2.6,0,0,0-.9-1.12A17.77,17.77,0,0,0,116,58.22l-.41-.21a2.5,2.5,0,0,0-.35-.21,9.58,9.58,0,0,1-1.73-1.45,3.42,3.42,0,0,1-.7-2.09A3,3,0,0,1,114,51.7a4.28,4.28,0,0,1,2.42-.9h.07a3,3,0,0,1,.9.14l.76.2a3.79,3.79,0,0,0,.7.28,1.12,1.12,0,0,0,.48.07.87.87,0,0,0,.42-.07,1.1,1.1,0,0,1,.2-.28v-.2c.07,0,.07-.07.07-.14Z"></path>
          <path id="Path_51" data-name="Path 51" class="cls-1" d="M131.75,64.11v.35h-5.89v-.35c1-.07,1.53-.21,1.67-.49a2.85,2.85,0,0,0,.27-1.52V51.9h-1.1a5,5,0,0,0-2.29.48,4.16,4.16,0,0,0-.9,2.15H123l.07-3.47h11.35l.14,3.47h-.48a3.7,3.7,0,0,0-1-2.15,4.51,4.51,0,0,0-2.29-.42l-1-.06V62.23a2.48,2.48,0,0,0,.28,1.46c.21.28.69.41,1.59.41Z"></path>
          <path id="Path_52" data-name="Path 52" class="cls-1" d="M135.29,64.45v-.34c.9-.07,1.38-.14,1.66-.42a2.25,2.25,0,0,0,.28-1.39v-9c0-.77-.08-1.25-.35-1.46a3.14,3.14,0,0,0-1.59-.35v-.41h6v.41a3.05,3.05,0,0,0-1.6.35c-.27.14-.41.69-.41,1.46v8.94c0,.83.14,1.32.41,1.53a3,3,0,0,0,1.6.34v.35Z"></path>
          <path id="Path_53" data-name="Path 53" class="cls-1" d="M150.8,64.11v.35h-5.89v-.35c.9-.07,1.46-.21,1.6-.49a2.75,2.75,0,0,0,.27-1.52V51.9h-1.1a4.37,4.37,0,0,0-2.22.48,3.7,3.7,0,0,0-1,2.15H142l.14-3.47H153.5l.14,3.47h-.48a3.7,3.7,0,0,0-1-2.15A4.12,4.12,0,0,0,149.9,52l-1-.06V62.23c0,.77.07,1.18.35,1.46s.69.41,1.59.41Z"></path>
          <path id="Path_54" data-name="Path 54" class="cls-1" d="M168.25,51.07v.41a2.43,2.43,0,0,0-1.59.56,4,4,0,0,0-.35,2v6.38a7.52,7.52,0,0,1-.27,1.25,4.35,4.35,0,0,1-1.39,2.15,5.26,5.26,0,0,1-3.53.9,5.05,5.05,0,0,1-3.25-.83A4.61,4.61,0,0,1,156.41,62a6,6,0,0,1-.28-1.39c0-.42-.06-.76-.06-1V53.29c0-.77-.07-1.18-.28-1.39a3.17,3.17,0,0,0-1.53-.42v-.41H160v.41a2.63,2.63,0,0,0-1.52.42,2.08,2.08,0,0,0-.35,1.39v7.28c.07.28.07.63.14,1a3.62,3.62,0,0,0,1,1.6,3.24,3.24,0,0,0,2.42.76,3.79,3.79,0,0,0,2-.48A3.56,3.56,0,0,0,165,62.31a3.67,3.67,0,0,0,.28-1,6.38,6.38,0,0,0,.14-1.8V54.06A3.69,3.69,0,0,0,165,52a2.45,2.45,0,0,0-1.45-.48v-.42Z"></path>
          <path id="Path_55" data-name="Path 55" class="cls-1" d="M177.68,64.11v.35h-5.89v-.35c.9-.07,1.46-.21,1.66-.49a3.6,3.6,0,0,0,.28-1.52V51.9h-1.11a5,5,0,0,0-2.28.48,4,4,0,0,0-1,2.15h-.49l.14-3.47h11.43l.07,3.47H180a3.7,3.7,0,0,0-.9-2.15,4.53,4.53,0,0,0-2.29-.42l-1.11-.06V62.23a2.42,2.42,0,0,0,.35,1.46c.21.28.76.41,1.59.41Z"></path>
          <path id="Path_56" data-name="Path 56" class="cls-1" d="M193,61.06l-.9,3.4h-11v-.35a3.08,3.08,0,0,0,1.39-.35c.27-.21.34-.69.34-1.45v-9c0-.77-.07-1.25-.34-1.46a4.44,4.44,0,0,0-1.39-.35v-.41h10.74L192,54h-.49a3,3,0,0,0-.83-1.73,4.59,4.59,0,0,0-2.28-.35l-2.7-.07c-.21.07-.42.07-.49.14s-.21.21-.21.62V57h3.12c.9,0,1.46-.14,1.66-.41a2.89,2.89,0,0,0,.56-1.46l.48-.07v4.72h-.48c-.14-.83-.28-1.32-.56-1.53a2.84,2.84,0,0,0-1.66-.41H185v5c0,.41.14.69.42.76a21,21,0,0,0,2.63.07,4.85,4.85,0,0,0,2.77-.56,4.3,4.3,0,0,0,1.66-2.08Z"></path>
        </g>
      </g>
    </g>
  </g>
  <g id="Group_20" data-name="Group 20">
    <g id="Group_12" data-name="Group 12">
      <g id="Group_8" data-name="Group 8">
        <g id="Group_7" data-name="Group 7">
          <path id="Path_57" data-name="Path 57" class="cls-1" d="M54.43,54.57v-.78c1.69,0,2.74-.26,3.19-.72s.65-1.37.65-2.8V32.68c0-1.44-.26-2.41-.71-2.8a5.8,5.8,0,0,0-3.13-.72v-.78H66.21v.72a7.16,7.16,0,0,0-3.06.65c-.59.39-.85,1.37-.85,2.93V50.27c0,1.56.26,2.54.85,2.93a6.24,6.24,0,0,0,3.06.65v.72Z"></path>
          <path id="Path_58" data-name="Path 58" class="cls-1" d="M51.31,31.64c-2.93-2.15-6.7-3.26-11.45-3.26H29.2v.78a4.75,4.75,0,0,1,2.86.72,4.48,4.48,0,0,1,.59,2.8V50.27a4.89,4.89,0,0,1-.59,2.8,4.09,4.09,0,0,1-2.86.71v.79H40.38c4.62,0,8-.92,10.22-2.74a12.9,12.9,0,0,0,4.87-8.27c.07-.66.13-1.37.13-2Q55.6,35,51.31,31.64ZM49.29,49a11.69,11.69,0,0,1-4.42,3.32,14,14,0,0,1-3.38.72c-1.11.06-1.89.12-2.47.12a4,4,0,0,1-1.89-.32c-.32-.2-.45-.65-.45-1.3V31.37a1.83,1.83,0,0,1,.26-1c.13-.33.65-.45,1.62-.45a17.75,17.75,0,0,1,5.66.71,10.85,10.85,0,0,1,3.38,2,9.88,9.88,0,0,1,2.87,4.17,14,14,0,0,1,.84,4.83c0,3.32-.65,5.73-2,7.36Z"></path>
          <path id="Path_59" data-name="Path 59" class="cls-1" d="M16.06,54.57v-.78c1.69,0,2.8-.26,3.18-.72s.65-1.37.65-2.8V32.68c0-1.44-.2-2.41-.65-2.8a6,6,0,0,0-3.18-.72v-.78H27.83v.72a7.35,7.35,0,0,0-3.06.65c-.52.39-.84,1.37-.84,2.93V50.27c0,1.56.32,2.54.84,2.93a6.35,6.35,0,0,0,3.06.65v.72Z"></path>
        </g>
      </g>
      <g id="Group_11" data-name="Group 11">
        <g id="Group_10" data-name="Group 10" class="cls-3">
          <g id="Group_9" data-name="Group 9">
            <path id="Path_60" data-name="Path 60" class="cls-1" d="M54.43,54.57v-.78c1.69,0,2.74-.26,3.19-.72s.65-1.37.65-2.8V32.68c0-1.44-.26-2.41-.71-2.8a5.8,5.8,0,0,0-3.13-.72v-.78H66.21v.72a7.16,7.16,0,0,0-3.06.65c-.59.39-.85,1.37-.85,2.93V50.27c0,1.56.26,2.54.85,2.93a6.24,6.24,0,0,0,3.06.65v.72Z"></path>
            <path id="Path_61" data-name="Path 61" class="cls-1" d="M51.31,31.64c-2.93-2.15-6.7-3.26-11.45-3.26H29.2v.78a4.75,4.75,0,0,1,2.86.72,4.48,4.48,0,0,1,.59,2.8V50.27a4.89,4.89,0,0,1-.59,2.8,4.09,4.09,0,0,1-2.86.71v.79H40.38c4.62,0,8-.92,10.22-2.74a12.9,12.9,0,0,0,4.87-8.27c.07-.66.13-1.37.13-2Q55.6,35,51.31,31.64ZM49.29,49a11.69,11.69,0,0,1-4.42,3.32,14,14,0,0,1-3.38.72c-1.11.06-1.89.12-2.47.12a4,4,0,0,1-1.89-.32c-.32-.2-.45-.65-.45-1.3V31.37a1.83,1.83,0,0,1,.26-1c.13-.33.65-.45,1.62-.45a17.75,17.75,0,0,1,5.66.71,10.85,10.85,0,0,1,3.38,2,9.88,9.88,0,0,1,2.87,4.17,14,14,0,0,1,.84,4.83c0,3.32-.65,5.73-2,7.36Z"></path>
            <path id="Path_62" data-name="Path 62" class="cls-1" d="M16.06,54.57v-.78c1.69,0,2.8-.26,3.18-.72s.65-1.37.65-2.8V32.68c0-1.44-.2-2.41-.65-2.8a6,6,0,0,0-3.18-.72v-.78H27.83v.72a7.35,7.35,0,0,0-3.06.65c-.52.39-.84,1.37-.84,2.93V50.27c0,1.56.32,2.54.84,2.93a6.35,6.35,0,0,0,3.06.65v.72Z"></path>
          </g>
        </g>
      </g>
    </g>
    <g id="Group_19" data-name="Group 19">
      <g id="Group_18" data-name="Group 18" class="cls-2">
        <g id="Group_14" data-name="Group 14">
          <g id="Group_13" data-name="Group 13">
            <path id="Path_63" data-name="Path 63" class="cls-1" d="M54.43,54.57v-.78c1.69,0,2.74-.26,3.19-.72s.65-1.37.65-2.8V32.68c0-1.44-.26-2.41-.71-2.8a5.8,5.8,0,0,0-3.13-.72v-.78H66.21v.72a7.16,7.16,0,0,0-3.06.65c-.59.39-.85,1.37-.85,2.93V50.27c0,1.56.26,2.54.85,2.93a6.24,6.24,0,0,0,3.06.65v.72Z"></path>
            <path id="Path_64" data-name="Path 64" class="cls-1" d="M51.31,31.64c-2.93-2.15-6.7-3.26-11.45-3.26H29.2v.78a4.75,4.75,0,0,1,2.86.72,4.48,4.48,0,0,1,.59,2.8V50.27a4.89,4.89,0,0,1-.59,2.8,4.09,4.09,0,0,1-2.86.71v.79H40.38c4.62,0,8-.92,10.22-2.74a12.9,12.9,0,0,0,4.87-8.27c.07-.66.13-1.37.13-2Q55.6,35,51.31,31.64ZM49.29,49a11.69,11.69,0,0,1-4.42,3.32,14,14,0,0,1-3.38.72c-1.11.06-1.89.12-2.47.12a4,4,0,0,1-1.89-.32c-.32-.2-.45-.65-.45-1.3V31.37a1.83,1.83,0,0,1,.26-1c.13-.33.65-.45,1.62-.45a17.75,17.75,0,0,1,5.66.71,10.85,10.85,0,0,1,3.38,2,9.88,9.88,0,0,1,2.87,4.17,14,14,0,0,1,.84,4.83c0,3.32-.65,5.73-2,7.36Z"></path>
            <path id="Path_65" data-name="Path 65" class="cls-1" d="M16.06,54.57v-.78c1.69,0,2.8-.26,3.18-.72s.65-1.37.65-2.8V32.68c0-1.44-.2-2.41-.65-2.8a6,6,0,0,0-3.18-.72v-.78H27.83v.72a7.35,7.35,0,0,0-3.06.65c-.52.39-.84,1.37-.84,2.93V50.27c0,1.56.32,2.54.84,2.93a6.35,6.35,0,0,0,3.06.65v.72Z"></path>
          </g>
        </g>
        <g id="Group_17" data-name="Group 17">
          <g id="Group_16" data-name="Group 16" class="cls-3">
            <g id="Group_15" data-name="Group 15">
              <path id="Path_66" data-name="Path 66" class="cls-1" d="M54.43,54.57v-.78c1.69,0,2.74-.26,3.19-.72s.65-1.37.65-2.8V32.68c0-1.44-.26-2.41-.71-2.8a5.8,5.8,0,0,0-3.13-.72v-.78H66.21v.72a7.16,7.16,0,0,0-3.06.65c-.59.39-.85,1.37-.85,2.93V50.27c0,1.56.26,2.54.85,2.93a6.24,6.24,0,0,0,3.06.65v.72Z"></path>
              <path id="Path_67" data-name="Path 67" class="cls-1" d="M51.31,31.64c-2.93-2.15-6.7-3.26-11.45-3.26H29.2v.78a4.75,4.75,0,0,1,2.86.72,4.48,4.48,0,0,1,.59,2.8V50.27a4.89,4.89,0,0,1-.59,2.8,4.09,4.09,0,0,1-2.86.71v.79H40.38c4.62,0,8-.92,10.22-2.74a12.9,12.9,0,0,0,4.87-8.27c.07-.66.13-1.37.13-2Q55.6,35,51.31,31.64ZM49.29,49a11.69,11.69,0,0,1-4.42,3.32,14,14,0,0,1-3.38.72c-1.11.06-1.89.12-2.47.12a4,4,0,0,1-1.89-.32c-.32-.2-.45-.65-.45-1.3V31.37a1.83,1.83,0,0,1,.26-1c.13-.33.65-.45,1.62-.45a17.75,17.75,0,0,1,5.66.71,10.85,10.85,0,0,1,3.38,2,9.88,9.88,0,0,1,2.87,4.17,14,14,0,0,1,.84,4.83c0,3.32-.65,5.73-2,7.36Z"></path>
              <path id="Path_68" data-name="Path 68" class="cls-1" d="M16.06,54.57v-.78c1.69,0,2.8-.26,3.18-.72s.65-1.37.65-2.8V32.68c0-1.44-.2-2.41-.65-2.8a6,6,0,0,0-3.18-.72v-.78H27.83v.72a7.35,7.35,0,0,0-3.06.65c-.52.39-.84,1.37-.84,2.93V50.27c0,1.56.32,2.54.84,2.93a6.35,6.35,0,0,0,3.06.65v.72Z"></path>
            </g>
          </g>
        </g>
      </g>
    </g>
  </g>
  <g id="Group_21" data-name="Group 21">
    <path id="Path_69" data-name="Path 69" class="cls-4" d="M54.24,14.5A27.5,27.5,0,0,1,66.85,66.4l.07-.07.2-1.25.21-1.25.21-1.25.07-1.32V60A24.28,24.28,0,1,0,32.29,26.85h-1A27.5,27.5,0,0,1,54.24,14.5Z"></path>
    <path id="Path_70" data-name="Path 70" class="cls-4" d="M65.74,59.88A23.83,23.83,0,0,1,21,71.74l.28.07,1.45.28,1.53.2,1.52.08,1,.07a21.06,21.06,0,0,0,36-14.65H65.6A11.24,11.24,0,0,1,65.74,59.88Z"></path>
    <path id="Path_71" data-name="Path 71" class="cls-4" d="M27.43,69.94A27.47,27.47,0,0,1,14.76,18.11l-.21,1-.21,1.25-.21,1.32L14.06,23v1.52A24.3,24.3,0,1,0,51.4,54.89l.21-.14.27-.21.21-.21.21-.21A27.41,27.41,0,0,1,27.43,69.94Z"></path>
    <path id="Path_72" data-name="Path 72" class="cls-4" d="M15.86,24.29a23.85,23.85,0,0,1,45-11.52h-.07l-.49-.14-1.52-.28-1.46-.14-1.52-.14h-.55A20.79,20.79,0,0,0,39.7,5.62,21.09,21.09,0,0,0,18.91,26.85H16C15.93,26,15.86,25.12,15.86,24.29Z"></path>
  </g>
</svg>