<svg id="Layer_1" data-name="Layer 1" xmlns="http://www.w3.org/2000/svg" viewBox="0 0 500 243"><path d="M82.4,136.66a21.11,21.11,0,0,1-1.4-7.9V57.4c0-12.27,9.87-20.8,21.7-20.8h33.82c21.14,0,35.49,17.78,36.79,35.46l2.61,11.46a34.76,34.76,0,0,1,.84,7.56A34,34,0,0,1,175,102.27c.09,1.07.46,2.58,1.95,10.31a58.73,58.73,0,0,1,1.49,11c0,23.11-19.28,39-39.12,39H105.68c-9.59,0-18.9-5.68-21.14-16Zm54.12-96.5H102.7c-9.78,0-18,7.11-18,17.24v71.36c0,11,9,17.24,18.16,17.24h33.63c18.07,0,35.67-14.58,35.67-35.73a35.66,35.66,0,0,0-6.33-20.08,33.27,33.27,0,0,0,3.82-15.55C169.68,57.84,156.45,40.16,136.52,40.16Zm-16.86,37.5V72.15h14.53A3,3,0,0,1,137.26,75a2.92,2.92,0,0,1-3.07,2.67Zm0,34.3v-5.51h14.53a3,3,0,0,1,3.07,2.84,2.92,2.92,0,0,1-3.07,2.67Z"/><path d="M262.4,167.7H251.78v6a20.82,20.82,0,0,1-41.17,4.18L208.47,168a21.09,21.09,0,0,1-1.4-7.64V113.4c0-26.3,22.36-45.94,48.25-45.94,25.53,0,45.55,17.6,47.69,41.77l1.68,7.91a46.79,46.79,0,0,1,1,9.59v46.92a20.77,20.77,0,0,1-41.08,4.18C262.5,167.88,262.5,167.79,262.4,167.7Zm-51.6-54.3v46.93a17.37,17.37,0,0,0,34.74,0v-9.25h19.28v9.25a17.33,17.33,0,0,0,34.66,0V113.4c0-24.26-19.66-42.38-44.16-42.38C231.1,71,210.8,89.14,210.8,113.4Zm54,0v4.18H245.54V113.4c0-4.26,3.91-7.73,9.41-7.73S264.82,109.14,264.82,113.4Z"/><path d="M332.75,136.58a21.17,21.17,0,0,1-1.39-7.91V57.4c0-12.71,10-20.8,21.79-20.8h17.33C398,36.6,423.94,57,427.11,86.9l1.68,7.82A60.09,60.09,0,0,1,430,106.45c0,33.15-27.57,56.16-56.73,56.16H356c-10.16,0-19-6-21.05-16Zm37.73-96.42H353.15c-9.78,0-18.07,6.75-18.07,17.24v71.27c0,10.57,8.29,17.33,18.07,17.33h17.33c27.38,0,53.28-21.69,53.28-52.88S397.86,40.16,370.48,40.16Zm1.77,71.27h-2.33V74.73h2.14c9.13,0,16.77,8.53,16.77,18.39S381.19,111.43,372.25,111.43Zm6.05-5.34a15.23,15.23,0,0,0,6.43-9.41,13.91,13.91,0,0,0-6.43-4.8Z"/><path d="M498.8,92.78a13.55,13.55,0,0,0-12.11-8.12h-2.95c-1,0-1.44-.06-1.64-.33a1.84,1.84,0,0,0,.64.18c-1.07-3.8-1.77-11.26-2.1-19.64-.47-9.37-.56-20.07-5.54-30.86-.14-.32-.31-.63-.47-.94-.4-1-.82-2-1.31-3.06-5.16-10.8-17.88-19.5-32.63-19.5h-.18A13.84,13.84,0,0,0,427,24.56,14.11,14.11,0,0,0,432.7,36a13.38,13.38,0,0,0,10.86,5.68h.19a31.37,31.37,0,0,1,5.07.25,4.07,4.07,0,0,0,.17.38c1.47,3.06,2.58,10.8,2.95,20s.27,19.4,4.33,30a31.82,31.82,0,0,0,3.5,6.12,29.1,29.1,0,0,0-3.78,6.49c-4.24,10.61-4.05,20.93-4.51,30.1s-1.39,17-2.86,20.07-.46,3.63-7.93,3.63h-.18a13.83,13.83,0,0,0-13.56,14,14.16,14.16,0,0,0,2.39,7.9,13.51,13.51,0,0,0,12.22,8h.19c14.84,0,27.56-8.69,32.63-19.49s5.16-21.5,5.62-31,1.2-17.58,2.49-20.83c.93-2.58,0-2.86,2.4-2.86h2.95a13.7,13.7,0,0,0,13.28-14A14.38,14.38,0,0,0,498.8,92.78Zm-58.29,68.93h.18c6.36,0,8.64-.22,10.28-4.46.11-.28.23-.58.38-.93,2.16-4.55,2.88-15.22,3.12-21.19.07-1.22.12-2.49.17-3.79.32-8.17.66-16.62,4.14-25.31a25.57,25.57,0,0,1,3.4-5.82l1.28-1.72-1.22-1.78a28.72,28.72,0,0,1-3.18-5.51c-3.43-9-3.74-18-4-26,0-1-.07-2-.11-3-.19-4.73-.88-16.27-3.24-21.15-.15-.33-.29-.65-.41-.93-1.76-4.24-4-4.59-10.59-4.59h-.37C434.6,35.51,430,30.6,430,24.56a10.83,10.83,0,0,1,10.56-11h.18c12.61,0,24.92,7.32,29.93,17.79,4.4,9.3,4.84,19,5.22,27.53l.11,2.28c.24,6.14.9,17.17,2.58,21.72a8.17,8.17,0,0,1,.4,1.36c.66,3.2,2.83,3.47,4.81,3.47h2.95a11,11,0,0,1,0,22h-2.36c-2.38,0-4.85,0-5.71,3.5a6.55,6.55,0,0,1-.38,1.22c-1.28,3.23-2.13,10.15-2.71,21.83l-.07,1.82c-.32,8.6-.68,18.36-5.1,27.93-4.82,10.45-17,17.75-29.63,17.75h-.18a11,11,0,0,1,0-22Z"/><path d="M0,100.61a13.7,13.7,0,0,0,13.28,14h2.95c2.4,0,1.47.28,2.4,2.86,1.29,3.25,2,11.47,2.48,20.83s.56,20.26,5.63,31S44.48,188.7,59.32,188.7h.19a13.51,13.51,0,0,0,12.22-8,14.16,14.16,0,0,0,2.39-7.9,13.83,13.83,0,0,0-13.56-14h-.18c-7.47,0-6.55-.48-7.93-3.63S50,144.18,49.59,135s-.27-19.49-4.51-30.1a29.49,29.49,0,0,0-3.78-6.49,31.82,31.82,0,0,0,3.5-6.12c4.06-10.6,4-20.92,4.33-30s1.48-16.91,2.95-20a4.07,4.07,0,0,0,.17-.38,31.37,31.37,0,0,1,5.07-.25h.19A13.38,13.38,0,0,0,68.37,36a14.11,14.11,0,0,0,5.75-11.46,13.84,13.84,0,0,0-13.56-14h-.18c-14.75,0-27.47,8.7-32.63,19.5-.49,1-.91,2-1.31,3.06-.16.31-.33.62-.48.94C21,44.8,20.89,55.5,20.43,64.87c-.33,8.38-1,15.84-2.1,19.64a1.84,1.84,0,0,0,.64-.18c-.2.27-.6.33-1.64.33H14.38A13.55,13.55,0,0,0,2.27,92.78,14.3,14.3,0,0,0,0,100.61Zm71.17,72.14A10.77,10.77,0,0,1,60.56,183.7h-.18c-12.63,0-24.82-7.3-29.63-17.75-4.42-9.57-4.78-19.33-5.1-27.93l-.07-1.82c-.58-11.68-1.43-18.6-2.71-21.83a7.57,7.57,0,0,1-.39-1.22c-.85-3.5-3.32-3.5-5.7-3.5H14.42a11,11,0,0,1,0-22h2.95c2,0,4.15-.27,4.81-3.47a8.17,8.17,0,0,1,.4-1.36c1.68-4.55,2.34-15.58,2.58-21.72l.1-2.28c.39-8.55.83-18.23,5.23-27.53,5-10.47,17.32-17.79,29.93-17.79h.18a10.83,10.83,0,0,1,10.56,11c0,6-4.66,11-10.37,11h-.37c-6.56,0-8.83.35-10.59,4.59-.12.28-.26.6-.41.93C47,45.91,46.33,57.45,46.14,62.18c0,1-.08,2-.12,3-.27,8-.59,17-4,26a28.72,28.72,0,0,1-3.18,5.51l-1.22,1.78,1.28,1.72a25.57,25.57,0,0,1,3.4,5.82c3.48,8.69,3.81,17.14,4.14,25.31,0,1.3.1,2.57.17,3.79.24,6,1,16.64,3.12,21.19.15.35.27.65.38.93,1.64,4.24,3.92,4.46,10.28,4.46h.18A10.82,10.82,0,0,1,71.12,172.75Z"/><path d="M217.94,210.56a5,5,0,0,1,4.94,4.92,2.44,2.44,0,0,1-2.11,2.6,6.63,6.63,0,0,1,3.46,2.17,7.26,7.26,0,0,1,2,5.39,8.27,8.27,0,0,1-2.42,5.94A6.55,6.55,0,0,1,219.2,234v0h-6V210.56Zm-1.71,3v3.71h2a1.87,1.87,0,0,0,1.15-.51,1.66,1.66,0,0,0,.53-1.31,1.8,1.8,0,0,0-.55-1.35,1.9,1.9,0,0,0-1.4-.54Zm0,6.83V231h3v0a4.11,4.11,0,0,0,2.33-1.51,5.19,5.19,0,0,0,1.54-3.76,5.22,5.22,0,0,0-5.21-5.22Z"/><path d="M238.72,221a5.38,5.38,0,0,1,4.18-2.41v3.15a3.85,3.85,0,0,0-2.64,1.06,5,5,0,0,0-1.54,3.49V234h-3V218.93h3Z"/><path d="M255.4,213.35a2.11,2.11,0,0,1,0,3,2.12,2.12,0,0,1-3,0,2.11,2.11,0,0,1,0-3,2.12,2.12,0,0,1,3,0Zm0,5.58V234h-3V218.93Z"/><path d="M279.13,220v-1h3V234h-3v-1.89a6.89,6.89,0,0,1-5.1,2.28,8.34,8.34,0,1,1,0-16.67A6.94,6.94,0,0,1,279.13,220Zm0,7.19V225a5,5,0,0,0-1.41-2.58,5.22,5.22,0,1,0,0,7.38A5,5,0,0,0,279.13,227.17Z"/><path d="M295.63,223v11h-3.05V218.93h3.05v1.75a3.71,3.71,0,0,1,3.82-2.57,4.81,4.81,0,0,1,3.89,1.73,6.8,6.8,0,0,1,1.49,4.36V234h-3v-9.68a3,3,0,0,0-1-2.24,3.13,3.13,0,0,0-2.27-.93,3.18,3.18,0,0,0-2.25.91A3.59,3.59,0,0,0,295.63,223Z"/><path d="M351.52,230.79a11.93,11.93,0,1,1-8.28-20.49,12.89,12.89,0,0,1,8.8,3.79l-2.27,2.07a9.73,9.73,0,0,0-6.53-2.78,8.91,8.91,0,0,0,0,17.82,8,8,0,0,0,5.24-1.67v-7.07h3Z"/><path d="M375.14,220v-1h3.05V234h-3.05v-1.89a6.89,6.89,0,0,1-5.1,2.28,8.34,8.34,0,1,1,0-16.67A6.94,6.94,0,0,1,375.14,220Zm0,7.19V225a5,5,0,0,0-1.41-2.58,5.22,5.22,0,1,0,0,7.38A5,5,0,0,0,375.14,227.17Z"/><path d="M391.63,221a5.35,5.35,0,0,1,4.17-2.41v3.15a3.83,3.83,0,0,0-2.63,1.06,5,5,0,0,0-1.54,3.49V234h-3V218.93h3Z"/><path d="M416.58,228.83l3,1.08a19.07,19.07,0,0,1-1.61,2,8.35,8.35,0,1,1,0-11.81,20,20,0,0,1,1.61,2l-3,1.11c-.39-.48-.65-.78-.79-.92a5.22,5.22,0,1,0-3.69,8.92,5.12,5.12,0,0,0,3.71-1.52Z"/><path d="M432.4,213.35a2.11,2.11,0,0,1,0,3,2.1,2.1,0,0,1-1.51.62,2.08,2.08,0,0,1-1.5-.62,2.11,2.11,0,0,1,0-3,2.08,2.08,0,0,1,1.5-.62A2.1,2.1,0,0,1,432.4,213.35Zm0,5.58V234h-3V218.93Z"/><path d="M456.12,220v-1h3.05V234h-3.05v-1.89a6.86,6.86,0,0,1-5.1,2.28,8.34,8.34,0,1,1,0-16.67A6.9,6.9,0,0,1,456.12,220Zm0,7.19V225a4.81,4.81,0,0,0-1.41-2.58,5.22,5.22,0,1,0,0,7.38A4.81,4.81,0,0,0,456.12,227.17Z"/><path d="M173.71,232.75l-.22,1.25h-2l2.76-15.62h2l-1.1,6.26a5.52,5.52,0,0,1,3.67-1.51,4.44,4.44,0,0,1,3.64,1.63,4.66,4.66,0,0,1,.94,3.94,6.54,6.54,0,0,1-2.33,3.93,6.32,6.32,0,0,1-4.21,1.63A3.8,3.8,0,0,1,173.71,232.75Zm.85-4.83-.28,1.57a2.72,2.72,0,0,0,.64,1.67,2.86,2.86,0,0,0,2.3,1,4,4,0,0,0,2.64-1,4.11,4.11,0,0,0,1.46-2.46,2.9,2.9,0,0,0-.59-2.46,2.78,2.78,0,0,0-2.28-1,4,4,0,0,0-2.66,1A4.15,4.15,0,0,0,174.56,227.92Z"/><path d="M191,237.38h-2.14l3.67-5.62L190.17,224h2.28l1.58,5.5,3.51-5.5h2.27Z"/></svg>