<svg id="Layer_1" data-name="Layer 1" xmlns="http://www.w3.org/2000/svg" viewBox="0 0 500.16 259.76"><path d="M82.4,138.77a21.13,21.13,0,0,1-1.4-7.91V59.5c0-12.26,9.87-20.79,21.7-20.79h33.82c21.14,0,35.49,17.77,36.79,35.46l2.61,11.46a34.73,34.73,0,0,1,.84,7.55,34.1,34.1,0,0,1-1.77,11.2c.09,1.07.46,2.58,1.95,10.31a58.61,58.61,0,0,1,1.49,11c0,23.1-19.28,39-39.12,39H105.68c-9.59,0-18.9-5.69-21.14-16Zm54.12-96.51H102.7c-9.78,0-18,7.11-18,17.24v71.36c0,11,9,17.24,18.16,17.24h33.63c18.07,0,35.67-14.57,35.67-35.72a35.63,35.63,0,0,0-6.33-20.08,33.31,33.31,0,0,0,3.82-15.56C169.68,60,156.45,42.26,136.52,42.26ZM119.66,79.77V74.26h14.53a3,3,0,0,1,3.07,2.84,2.92,2.92,0,0,1-3.07,2.67Zm0,34.3v-5.51h14.53a3,3,0,0,1,3.07,2.84,2.92,2.92,0,0,1-3.07,2.67Z" transform="translate(0.05 -10.62)"/><path d="M262.4,169.81H251.78v5.95a20.82,20.82,0,0,1-41.17,4.18l-2.14-9.87a21,21,0,0,1-1.4-7.64V115.51c0-26.3,22.36-45.94,48.25-45.94,25.53,0,45.55,17.59,47.69,41.76l1.68,7.91a46.81,46.81,0,0,1,1,9.6v46.92a20.77,20.77,0,0,1-41.08,4.18C262.5,170,262.5,169.9,262.4,169.81Zm-51.6-54.3v46.92a17.37,17.37,0,0,0,34.74,0v-9.24h19.28v9.24a17.33,17.33,0,1,0,34.66,0V115.51c0-24.26-19.66-42.39-44.16-42.39C231.1,73.12,210.8,91.25,210.8,115.51Zm54,0v4.18H245.54v-4.18c0-4.26,3.91-7.73,9.41-7.73S264.82,111.25,264.82,115.51Z" transform="translate(0.05 -10.62)"/><path d="M332.75,138.68a21.11,21.11,0,0,1-1.39-7.9V59.5c0-12.7,10-20.79,21.79-20.79h17.33c27.48,0,53.46,20.35,56.63,50.3l1.68,7.82A60.09,60.09,0,0,1,430,108.56c0,33.14-27.57,56.16-56.73,56.16H356c-10.16,0-19-6-21.05-16Zm37.73-96.42H353.15c-9.78,0-18.07,6.76-18.07,17.24v71.28c0,10.57,8.29,17.32,18.07,17.32h17.33c27.38,0,53.28-21.68,53.28-52.87S397.86,42.26,370.48,42.26Zm1.77,71.27h-2.33V76.83h2.14c9.13,0,16.77,8.53,16.77,18.4S381.19,113.53,372.25,113.53Zm6.05-5.33a15.22,15.22,0,0,0,6.43-9.42A14,14,0,0,0,378.3,94Z" transform="translate(0.05 -10.62)"/><path d="M497.8,92.88a13.54,13.54,0,0,0-12.11-8.11h-2.95c-1,0-1.44-.06-1.64-.33a1.84,1.84,0,0,0,.64.18c-1.07-3.81-1.77-11.26-2.1-19.65-.47-9.36-.56-20.06-5.54-30.86-.14-.31-.31-.62-.47-.93-.4-1-.82-2.05-1.31-3.07-5.16-10.79-17.88-19.49-32.63-19.49h-.18A13.84,13.84,0,0,0,426,24.67a14.11,14.11,0,0,0,5.75,11.46,13.38,13.38,0,0,0,10.86,5.68h.19a31.37,31.37,0,0,1,5.07.25c.05.12.1.24.17.38,1.47,3.06,2.58,10.8,2.95,20s.27,19.39,4.33,30a31.45,31.45,0,0,0,3.5,6.11A29.39,29.39,0,0,0,455,105c-4.24,10.61-4.05,20.93-4.51,30.1s-1.39,17-2.86,20.06-.46,3.63-7.93,3.63h-.18A13.84,13.84,0,0,0,426,172.86a14.16,14.16,0,0,0,2.39,7.9,13.51,13.51,0,0,0,12.22,8.05h.19c14.84,0,27.56-8.7,32.63-19.49s5.16-21.5,5.62-31,1.2-17.58,2.49-20.83c.93-2.58,0-2.86,2.4-2.86h2.95a13.7,13.7,0,0,0,13.28-14A14.44,14.44,0,0,0,497.8,92.88Zm-58.29,68.93h.18c6.36,0,8.64-.21,10.28-4.45.11-.28.23-.59.38-.93,2.16-4.55,2.88-15.22,3.12-21.19.07-1.22.12-2.5.17-3.79.32-8.17.66-16.62,4.14-25.31a25.57,25.57,0,0,1,3.4-5.82l1.28-1.73-1.22-1.77a28.72,28.72,0,0,1-3.18-5.51c-3.43-9-3.74-18-4-26,0-1-.07-2-.11-3-.19-4.74-.88-16.27-3.24-21.16-.15-.32-.29-.64-.41-.93-1.76-4.23-4-4.58-10.59-4.58h-.37C433.6,35.62,429,30.7,429,24.67a10.83,10.83,0,0,1,10.56-11.05h.18c12.61,0,24.92,7.32,29.93,17.79,4.4,9.3,4.84,19,5.22,27.52l.11,2.29c.24,6.14.9,17.16,2.58,21.72a8.17,8.17,0,0,1,.4,1.36c.66,3.2,2.83,3.47,4.81,3.47h2.95a11,11,0,0,1,0,22h-2.36c-2.38,0-4.85,0-5.71,3.5a6.78,6.78,0,0,1-.38,1.22c-1.28,3.22-2.13,10.15-2.71,21.83l-.07,1.81c-.32,8.61-.68,18.37-5.1,27.94-4.82,10.45-17,17.75-29.63,17.75h-.18a11,11,0,0,1,0-22Z" transform="translate(0.05 -10.62)"/><path d="M0,100.72a13.7,13.7,0,0,0,13.28,14h2.95c2.4,0,1.47.28,2.4,2.86,1.29,3.25,2,11.47,2.48,20.83s.56,20.26,5.63,31,17.79,19.49,32.63,19.49h.19a13.51,13.51,0,0,0,12.22-8.05,14.16,14.16,0,0,0,2.39-7.9,13.84,13.84,0,0,0-13.56-14.05h-.18c-7.47,0-6.55-.47-7.93-3.63S50,144.29,49.59,135.12s-.27-19.49-4.51-30.1a29.79,29.79,0,0,0-3.78-6.5,31.45,31.45,0,0,0,3.5-6.11c4.06-10.61,4-20.93,4.33-30s1.48-16.91,2.95-20c.07-.14.12-.26.17-.38a31.37,31.37,0,0,1,5.07-.25h.19a13.38,13.38,0,0,0,10.86-5.68,14.11,14.11,0,0,0,5.75-11.46A13.84,13.84,0,0,0,60.56,10.62h-.18c-14.75,0-27.47,8.7-32.63,19.49-.49,1-.91,2-1.31,3.07-.16.31-.33.62-.48.93-5,10.8-5.07,21.5-5.53,30.86-.33,8.39-1,15.84-2.1,19.65a1.84,1.84,0,0,0,.64-.18c-.2.27-.6.33-1.64.33H14.38A13.54,13.54,0,0,0,2.27,92.88,14.36,14.36,0,0,0,0,100.72Zm71.17,72.14a10.77,10.77,0,0,1-10.56,10.95h-.18c-12.63,0-24.82-7.3-29.63-17.75-4.42-9.57-4.78-19.33-5.1-27.94l-.07-1.81c-.58-11.68-1.43-18.61-2.71-21.83a7.89,7.89,0,0,1-.39-1.22c-.85-3.5-3.32-3.5-5.7-3.5H14.42a11,11,0,0,1,0-22h2.95c2,0,4.15-.27,4.81-3.47a8.17,8.17,0,0,1,.4-1.36c1.68-4.56,2.34-15.58,2.58-21.72l.1-2.29c.39-8.54.83-18.22,5.23-27.52,5-10.47,17.32-17.79,29.93-17.79h.18A10.83,10.83,0,0,1,71.12,24.67c0,6-4.66,10.95-10.37,10.95h-.37c-6.56,0-8.83.35-10.59,4.58-.12.29-.26.61-.41.93C47,46,46.33,57.55,46.14,62.29c0,1-.08,2-.12,3-.27,8-.59,17-4,26a28.72,28.72,0,0,1-3.18,5.51l-1.22,1.77,1.28,1.73a25.57,25.57,0,0,1,3.4,5.82c3.48,8.69,3.81,17.14,4.14,25.31,0,1.29.1,2.57.17,3.79.24,6,1,16.64,3.12,21.19.15.34.27.65.38.93,1.64,4.24,3.92,4.45,10.28,4.45h.18A10.83,10.83,0,0,1,71.12,172.86Z" transform="translate(0.05 -10.62)"/><path d="M217.94,243.56a5,5,0,0,1,4.94,4.92,2.44,2.44,0,0,1-2.11,2.6,6.63,6.63,0,0,1,3.46,2.17,7.26,7.26,0,0,1,2,5.39,8.27,8.27,0,0,1-2.42,5.94A6.55,6.55,0,0,1,219.2,267v0h-6V243.56Zm-1.71,3v3.71h2a1.87,1.87,0,0,0,1.15-.51,1.66,1.66,0,0,0,.53-1.31,1.8,1.8,0,0,0-.55-1.35,1.9,1.9,0,0,0-1.4-.54Zm0,6.83V264h3v0a4.11,4.11,0,0,0,2.33-1.51,5.19,5.19,0,0,0,1.54-3.76,5.22,5.22,0,0,0-5.21-5.22Z" transform="translate(0.05 -10.62)"/><path d="M238.72,254a5.38,5.38,0,0,1,4.18-2.41v3.15a3.85,3.85,0,0,0-2.64,1.06,5,5,0,0,0-1.54,3.49V267h-3V251.93h3Z" transform="translate(0.05 -10.62)"/><path d="M255.4,246.35a2.11,2.11,0,0,1,0,3,2.12,2.12,0,0,1-3,0,2.11,2.11,0,0,1,0-3,2.12,2.12,0,0,1,3,0Zm0,5.58V267h-3V251.93Z" transform="translate(0.05 -10.62)"/><path d="M279.13,253v-1h3V267h-3v-1.89a6.89,6.89,0,0,1-5.1,2.28,8.34,8.34,0,1,1,0-16.67A6.94,6.94,0,0,1,279.13,253Zm0,7.19V258a5,5,0,0,0-1.41-2.58,5.22,5.22,0,1,0,0,7.38A5,5,0,0,0,279.13,260.17Z" transform="translate(0.05 -10.62)"/><path d="M295.63,256v11h-3.05V251.93h3.05v1.75a3.71,3.71,0,0,1,3.82-2.57,4.81,4.81,0,0,1,3.89,1.73,6.8,6.8,0,0,1,1.49,4.36V267h-3v-9.68a3,3,0,0,0-1-2.24,3.13,3.13,0,0,0-2.27-.93,3.18,3.18,0,0,0-2.25.91A3.59,3.59,0,0,0,295.63,256Z" transform="translate(0.05 -10.62)"/><path d="M351.52,263.79a11.93,11.93,0,1,1-8.28-20.49,12.89,12.89,0,0,1,8.8,3.79l-2.27,2.07a9.73,9.73,0,0,0-6.53-2.78,8.91,8.91,0,0,0,0,17.82,8,8,0,0,0,5.24-1.67v-7.07h3Z" transform="translate(0.05 -10.62)"/><path d="M375.14,253v-1h3.05V267h-3.05v-1.89a6.89,6.89,0,0,1-5.1,2.28,8.34,8.34,0,1,1,0-16.67A6.94,6.94,0,0,1,375.14,253Zm0,7.19V258a5,5,0,0,0-1.41-2.58,5.22,5.22,0,1,0,0,7.38A5,5,0,0,0,375.14,260.17Z" transform="translate(0.05 -10.62)"/><path d="M391.63,254a5.35,5.35,0,0,1,4.17-2.41v3.15a3.83,3.83,0,0,0-2.63,1.06,5,5,0,0,0-1.54,3.49V267h-3V251.93h3Z" transform="translate(0.05 -10.62)"/><path d="M416.58,261.83l3,1.08a19.07,19.07,0,0,1-1.61,2,8.35,8.35,0,1,1,0-11.81,20,20,0,0,1,1.61,2l-3,1.11c-.39-.48-.65-.78-.79-.92a5.22,5.22,0,1,0-3.69,8.92,5.12,5.12,0,0,0,3.71-1.52Z" transform="translate(0.05 -10.62)"/><path d="M432.4,246.35a2.11,2.11,0,0,1,0,3,2.1,2.1,0,0,1-1.51.62,2.08,2.08,0,0,1-1.5-.62,2.11,2.11,0,0,1,0-3,2.08,2.08,0,0,1,1.5-.62A2.1,2.1,0,0,1,432.4,246.35Zm0,5.58V267h-3V251.93Z" transform="translate(0.05 -10.62)"/><path d="M456.12,253v-1h3.05V267h-3.05v-1.89a6.86,6.86,0,0,1-5.1,2.28,8.34,8.34,0,1,1,0-16.67A6.9,6.9,0,0,1,456.12,253Zm0,7.19V258a4.81,4.81,0,0,0-1.41-2.58,5.22,5.22,0,1,0,0,7.38A4.81,4.81,0,0,0,456.12,260.17Z" transform="translate(0.05 -10.62)"/><path d="M173.71,265.75l-.22,1.25h-2l2.76-15.62h2l-1.1,6.26a5.52,5.52,0,0,1,3.67-1.51,4.44,4.44,0,0,1,3.64,1.63,4.66,4.66,0,0,1,.94,3.94,6.54,6.54,0,0,1-2.33,3.93,6.32,6.32,0,0,1-4.21,1.63A3.8,3.8,0,0,1,173.71,265.75Zm.85-4.83-.28,1.57a2.72,2.72,0,0,0,.64,1.67,2.86,2.86,0,0,0,2.3,1,4,4,0,0,0,2.64-1,4.11,4.11,0,0,0,1.46-2.46,2.9,2.9,0,0,0-.59-2.46,2.78,2.78,0,0,0-2.28-1,4,4,0,0,0-2.66,1A4.15,4.15,0,0,0,174.56,260.92Z" transform="translate(0.05 -10.62)"/><path d="M191,270.38h-2.14l3.67-5.62L190.17,257h2.28l1.58,5.5,3.51-5.5h2.27Z" transform="translate(0.05 -10.62)"/></svg>