<?xml version="1.0" encoding="utf-8"?>
<!-- Generator: Adobe Illustrator 25.4.1, SVG Export Plug-In . SVG Version: 6.00 Build 0)  -->
<svg version="1.1" id="svg" xmlns="http://www.w3.org/2000/svg" xmlns:xlink="http://www.w3.org/1999/xlink" x="0px" y="0px"
	 viewBox="0 0 400 482.6" style="enable-background:new 0 0 400 482.6;" xml:space="preserve">
<style type="text/css">
	.st0{fill-rule:evenodd;clip-rule:evenodd;}
</style>
<path id="path0" class="st0" d="M193.5,7.4c-5.4,1.9-11.2,4-13,4.6c-1.8,0.6-4.9,1.7-6.8,2.4c-11.9,4.3-20.1,7.2-27,9.6
	c-4.3,1.5-8.3,3-8.9,3.3c-0.8,0.4-1.6,0.3-2.6-0.3c-4-2.5-7.1,1.3-4,4.9c0.8,0.9,0.2,13.6-0.1,14.9c-0.4,2.3-1.4,12.5-3,31.5
	c-0.8,8.9-1.6,18.4-1.8,21.1c-0.4,4.7-1.7,6.9-2.2,3.8c-0.2-1.4-0.3-1.4-0.8-0.2c-1.1,2.6-3.1,4.2-5.4,4.2c-1.6,0-2.1,0.2-1.9,0.9
	c0.4,1-2.2,1.9-7.4,2.7c-1.6,0.2-3.7,0.9-4.6,1.3c-0.9,0.5-6.3,2.2-12,3.8c-5.7,1.6-12.2,3.5-14.3,4.2c-2.1,0.7-5.5,1.7-7.5,2.2
	c-2,0.5-5.4,1.6-7.6,2.4l-4,1.4l-1.6-1.8c-4.7-5.5-12.8,2-8.3,7.6c1.1,1.4,1.2,1.7,0.3,3.8c-0.5,1.3-2.2,5.7-3.8,9.9
	c-1.6,4.2-3.3,8.3-3.8,9.1c-0.5,0.8-1.1,2.3-1.3,3.3c-0.2,1-0.9,1.8-1.4,1.8c-0.5,0-0.9,0.4-0.8,0.8c0.2,1.3-0.8,3.7-1.5,3.7
	c-0.4,0-0.5,0.6-0.3,1.3c0.3,1.3-7.2,21.5-10.3,27.5c-0.9,1.7-1.6,3.5-1.6,4.1c0,0.5-1.1,3.4-2.5,6.4c-1.4,3-2.9,6.4-3.3,7.8
	c-0.5,1.6-1.4,2.6-2.7,3.2c-2.5,1-2.9,4.1-0.7,5.6c1,0.7,1.2,2.3,1.6,10.4c0.2,5.3,1.2,26.2,2,46.4c0.9,20.2,2,43.3,2.4,51.4
	c0.4,8,0.8,16.8,0.8,19.4c0,2.6,0.2,4.7,0.3,4.7c1.3,0,0.7,25.3-0.6,25.7c-4.2,1.3-5.4,6.5-2.2,9.7l1.6,1.6L17.2,404
	c-2,8-4.2,17-4.9,20.1c-0.7,3.1-1.9,7.3-2.6,9.4c-0.7,2.1-1.7,5.7-2,8.1c-0.4,2.3-1.2,5.9-1.9,7.8C4.6,453.4,0,471.8,0,473.2
	c0,3.7,2.6-2.9,3.6-9.1c0.2-1.4,1.1-4.8,2-7.5c0.9-2.7,2.1-7.4,2.8-10.4c2.3-10.2,9.2-37.3,9.8-38.4c0.3-0.6,0.9-3,1.3-5.4
	c2.7-16.6,4.1-16.5,11.4,0.7c3.1,7.4,6.6,15.1,7.6,17c1,1.9,1.8,4,1.8,4.6c0,0.6,0.4,1.6,0.9,2.3c0.5,0.7,3.4,7.1,6.4,14.3
	c3,7.2,6.3,14.4,7.2,16.2c0.9,1.8,1.7,3.7,1.7,4.2c0,0.6,0.4,1.6,0.9,2.3c2.4,3.5,5,11,4.3,12.4c-0.6,1-0.6,1.7,0,2.8
	c1.4,2.6,7,1.4,6.4-1.5c-0.2-0.9,9.8-8.2,11.2-8.2c0.2,0,1.7-1,3.3-2.2c1.6-1.2,3.6-2.6,4.6-3.1c1-0.5,4.7-2.8,8.3-5.1
	c3.6-2.3,8-5.1,9.7-6.2c1.7-1.1,3.8-2.4,4.7-3c12-8.2,19.4-12.2,21.4-11.4c4.8,1.8,8.5-5.3,4-7.7c-2-1-2-1-2-6.7
	c0-5.9-1.7-32.2-2.3-35.6c-0.2-1.1-0.8-9.3-1.3-18.2c-0.5-8.9-1.1-19-1.4-22.5l-0.4-6.2l2.4-1.1c2.7-1.3,3.9-3.7,3.3-6.6
	c-0.3-1.9-0.2-2,3.4-3.7c9.2-4.2,14.7-6.6,22.6-10c11.6-5,18-7.8,23.7-10.5c6.6-3.1,8.1-3.5,9.3-2.3c0.5,0.5,2.2,1.1,3.6,1.3
	c5.4,0.7,8.7-5.6,4.9-9.4l-1.7-1.7l3.7-11.8c2.1-6.5,4.3-13,5-14.5c0.7-1.5,1.2-3.4,1.2-4.1c0-0.8,0.9-3.6,1.9-6.2
	c1.1-2.7,2.4-6.4,2.9-8.2c1.8-6.6,9.5-29.9,13.5-41.2c1-2.9,2-6.2,2.3-7.3c0.3-1.6,0.7-2.1,1.9-2.1c1.8,0,4.4-3.1,4-4.7
	c-0.2-0.8,0.2-1.4,1.1-1.7c2-0.8,18-8.3,20.3-9.6c4.4-2.4,5.5-2.9,11.4-5.7c11.3-5.2,20.4-9.6,30.9-14.7l10.4-5.1l1.6,1.2
	c4.6,3.6,11.2-1,9.2-6.3c-0.6-1.7-0.5-2,2.1-4.4c1.5-1.4,5.7-5.3,9.2-8.6c4-3.8,6.9-6.1,7.8-6.1c1,0,1.2-0.2,0.7-0.7
	c-0.8-0.8,9.2-10.2,10.4-9.8c0.3,0.1,0.4-0.1,0.2-0.4c-0.2-0.3,2.9-3.6,6.9-7.3c4-3.7,8.6-8.1,10.2-9.6c10.3-10,13.7-12.6,14.8-11.7
	c1,0.8,1.1,0.8,0.2-0.3c-0.8-1.1-0.7-1.4,1.6-3.6c1.6-1.5,2.3-2,2-1.2c-0.4,1-0.3,1.1,0.6,0.4c0.5-0.4,0.9-1,0.7-1.3
	c-0.6-1,5.8-6.4,7.7-6.4c2.5,0,3.2-0.9,3.3-4.3c0.1-3.2,0.2-3.1-4.3-1.9c-0.6,0.2-4.7-2.7-10.3-7.4c-5.1-4.2-10.1-8.3-11.1-9
	c-1.6-1.2-8.2-6.8-12-10.2c-0.7-0.7-2.3-1.8-3.4-2.5c-1.2-0.7-2.1-1.6-2.1-1.9c0-0.3-0.9-1-2-1.6c-1.1-0.6-1.8-1.3-1.6-1.7
	c0.2-0.4,0.2-0.6-0.1-0.5c-0.9,0.3-6.7-4.9-6.3-5.6c0.2-0.4,0.1-0.5-0.3-0.2c-0.5,0.3-7.9-5-9.3-6.6c-0.2-0.2-1.6-1.4-3.1-2.6
	c-3-2.4-3-2.4-10.2-0.5c-2.1,0.6-5,1-6.4,1c-1.4,0-4.6,0.7-7.2,1.6c-2.6,0.9-7.2,2-10.2,2.6c-3,0.6-7.2,1.5-9.3,2.1
	c-3.6,0.9-3.9,0.9-4.7-0.2c-0.9-1.1-0.9-1.1-0.8,0c0.2,1.3-1.4,1.7-22.3,6.2l-6.9,1.5l-1.8-1.8c-1.5-1.5-2.2-1.7-4.9-1.5
	c-2.8,0.2-3.4,0-5.6-2l-2.4-2.2l-0.9-0.5l-2.4-2.4c-1.9-1.9-2.2-2.7-1.7-3.6c0.7-1.3,0.4-1.4-1.3-0.6c-1.2,0.6-26-21.2-25.7-22.6
	c0.1-0.4-0.2-0.6-0.7-0.4c-0.5,0.2-1.2-0.1-1.7-0.7C205,3.5,204.3,3.6,193.5,7.4 M203.6,6.3c0,0.8-1.1,2.8-0.9,2.8
	c0.9,0-0.6,9.5-1.5,10.2c-0.8,0.6-0.9,1.5-0.6,4.2c0.9,7.6-1.6,18.9-4.3,19.6c-0.8,0.2-2.3,1.1-3.2,2.1c-1.5,1.5-1.9,1.6-4.2,1
	c-1.4-0.4-3.3-0.8-4.4-1.1c-1.4-0.3-1.7-0.5-1-1c0.6-0.4,0.2-0.6-1.3-0.5c-2.2,0-31-8.7-40.7-12.4l-4.6-1.7l4-1.8
	c2.2-1,5.7-2.2,7.6-2.7c2-0.5,4.4-1.4,5.5-1.9c1-0.5,5.7-2.2,10.3-3.7c4.7-1.5,9.3-3.2,10.3-3.7c1-0.5,3.5-1.4,5.4-1.9
	s5.1-1.6,6.9-2.5c1.8-0.9,4.7-1.9,6.3-2.4c1.6-0.4,3.8-1.2,4.9-1.6C202.1,5.8,203.6,5.5,203.6,6.3 M218.5,17.8
	c11.8,10.6,12.5,11.3,12.1,12.1c-0.2,0.4,0,0.5,0.4,0.3c1.6-0.6,7.3,5.3,5.9,6.1c-1.6,0.9-0.7,1.7,1,0.8c2.3-1.2,6.5,3.5,5.7,6.3
	l-0.6,2.1l-5.2,0.1c-6.2,0.1-6.6,0.2-11.9,0.8c-2.3,0.3-5,0.6-6.2,0.7c-1.1,0.1-3.8,0.5-6,0.9c-6.4,1.1-7.9,0.9-8.4-0.9
	c-0.2-0.9-1.4-2.3-2.7-3.1c-1.8-1.2-2.2-1.8-2-3.1c0.2-0.9,0.7-4.7,1.1-8.5c0.4-3.8,1.1-7.2,1.5-7.7c0.4-0.5,0.6-2.2,0.6-3.9
	c0-1.7,0.2-5.8,0.6-9.1l0.7-6l2.4,2C208.7,9,213.7,13.5,218.5,17.8 M329.1,28.9c0,0.1-0.4,1.3-1,2.6c-0.5,1.3-1,3.2-1,4.1
	c0,1-0.6,3.9-1.2,6.4c-1.7,6.3-3.7,14.3-4.5,18.2c-0.4,1.8-1.7,7.1-2.9,11.7c-1.2,4.6-2.9,11.4-3.7,15c-2.5,10.7-2.3,10.3-5,11.2
	c-2.6,0.8-6.6-2.1-5.7-4.2c0.2-0.5,0-0.8-0.3-0.8c-0.3,0-0.6,0.3-0.6,0.7s-3.8-2.9-8.4-7.3c-4.6-4.4-8.2-8.2-8-8.6s0.1-0.5-0.2-0.2
	c-0.4,0.2-2.7-1.6-5.2-4c-4.3-4.1-17.1-16.2-23.7-22.4c-5.6-5.2-3-7.1,13.1-9.9c3-0.5,6.7-1.3,8.1-1.7c2.8-0.8,33.5-7.6,38.5-8.5
	c1.8-0.3,4.9-1,6.8-1.5C327.8,28.7,329.1,28.5,329.1,28.9 M337.6,34.5c1.3,1.1,1.8,1.9,1.1,1.7s-1.1-0.1-1.1,0.2
	c0,0.7,2.1,1.5,3.1,1.2c0.4-0.1,1.9,0.8,3.4,2.1c1.5,1.3,3.6,3,4.7,3.8l1.9,1.5c0,0,0.3,0.7,1.2,1.1c1.8,1.1,8.3,7.2,7.1,6.8
	c-0.6-0.2-1.3,0-1.6,0.4c-0.4,0.6,0,0.7,1.5,0.4c1.6-0.3,2.4,0,4,1.4c1.1,1,4.1,3.5,6.6,5.6c2.5,2.1,4.4,4.1,4.1,4.5
	s-0.1,0.5,0.3,0.3c1.1-0.7,19,14,19.1,15.6c0,0.6-14.5,4.6-29.6,8.1c-2.9,0.7-7.5,1.9-10.2,2.8c-2.7,0.9-6.7,1.9-8.8,2.3
	c-2.1,0.3-5.6,1.2-7.8,2c-4.5,1.5-6,1.7-6,0.7c0-0.4-0.3-0.7-0.7-0.7c-0.4,0-0.6,0.4-0.4,0.9c0.3,0.7-1.1,1.3-5.7,2.4l-6,1.5
	l-1.4-1.4c-0.8-0.8-1.7-1.4-2-1.4c-0.6,0,5.6-27.1,7.3-31.6c0.5-1.5,1.3-4.8,1.7-7.4c0.4-2.6,1-5.2,1.3-5.8
	c0.3-0.6,1.8-6.4,3.3-12.9l2.8-11.8l2.3,1.9C334.2,31.6,336.3,33.3,337.6,34.5 M152.8,36.8c5.2,1.6,11.8,3.7,14.7,4.5
	c6.7,1.9,10.7,3.7,10.2,4.5c-0.2,0.4,0,0.5,0.7,0.2c2-0.8,13.1,2.4,12.4,3.5c-0.2,0.3-0.1,1.6,0.3,2.9c0.6,2.3,0.6,2.3-2.7,4.9
	c-1.9,1.4-5.9,4.6-9,7c-12.8,10-16.2,12.5-18.1,13.5c-1.1,0.6-1.9,1.3-1.7,1.6c0.5,0.8-1.6,1.9-3,1.5c-0.7-0.2-1.2,0-1.2,0.4
	c0,0.4,0.5,0.5,1.1,0.3c1.6-0.6,0.7,0.2-5.8,5.2c-3.1,2.3-6.3,4.9-7.2,5.7c-1.9,1.8-4.9,3.4-5.2,2.8c-0.1-0.3-0.2-0.1-0.1,0.3
	c0.3,1.1-8.2,8-9.8,8c-0.4,0-0.5-2.2-0.2-6.3c0.2-3.5,0.5-7.5,0.5-8.9c0.1-2.3,0.2-2.4,1.2-1.6c1.1,0.8,1.1,0.8,0.1-0.7
	c-1-1.6,0.4-22.6,1.7-26c0.2-0.6,0.5-3.9,0.7-7.5c0.2-3.6,0.5-6.8,0.7-7.1c0.2-0.3,0.5-2.7,0.7-5.2c0.2-2.5,0.6-4.8,1-5.1
	c0.6-0.4,0.6-0.7,0-1.3c-1.6-1.6,1-2.5,4.3-1.4l2.9,1C142,33.4,145.7,34.5,152.8,36.8z M244.7,49c1.1,1.4,1.7,2.7,1.5,3.7
	c-0.4,2.2-3,7.7-3.7,7.7c-0.5,0-2.5,3.4-2.5,4.2c0,0.2-0.7,1.1-1.6,2.1c-0.9,1-1.6,2.1-1.6,2.6c0,0.5-0.3,1-0.7,1.3
	c-0.9,0.6-11.7-5.6-11.2-6.4c0.2-0.4,0.1-0.4-0.4-0.2c-0.4,0.3-1.5-0.1-2.5-0.9c-0.9-0.7-2.1-1.3-2.5-1.3c-0.4,0-1.8-0.7-3-1.7
	c-1.2-0.9-3.9-2.6-6-3.7l-3.8-2l1.5-1.2l1.5-1.2l-1.5,0.3c-0.8,0.1-1.8,0.5-2.1,0.7c-0.8,0.5-0.8-0.1,0-1.7c0.6-1,1.4-1.3,4.1-1.3
	c1.9,0,6.7-0.4,10.9-0.9c5.3-0.7,7.5-0.8,7.7-0.2c0.2,0.5,0.4,0.5,0.7,0C231.2,46.1,242.5,46.3,244.7,49 M259.8,55.6
	c1.5,1.4,6.5,6.1,11.1,10.4c12.4,11.5,14.7,13.7,19.9,18.7c3.1,3,7.9,7.5,10.6,10.1c2.8,2.6,4.9,4.8,4.8,4.9c-0.1,0.1-1.2,0.5-2.3,1
	c-1.2,0.5-2.1,1.1-2.1,1.5c0,0.4,0.4,0.5,1,0.2c0.5-0.2,1.4-0.6,2-0.8c0.7-0.3,1,0,1,1.3c0,1.3-0.4,1.8-1.8,2.1
	c-1,0.2-4.1,1.1-6.9,2c-5.5,1.8-10,1.7-9.3-0.1c0.2-0.5,0.1-1.1-0.2-1.3c-0.3-0.2-0.7,0-0.8,0.3c-0.1,0.4-2.1-2.6-4.4-6.7
	c-2.3-4-4.7-8.1-5.4-9c-0.7-0.9-1.8-2.9-2.6-4.4c-0.7-1.5-2.1-4-3.1-5.5c-1-1.5-3.8-6.3-6.3-10.7c-2.5-4.4-5.6-9.8-6.9-12
	c-1.3-2.2-2.9-4.9-3.5-6l-1.1-2l1.8,1.6C256.3,52.3,258.3,54.2,259.8,55.6 M254.3,54.3c1,1.8,2.3,4.1,2.8,5.3
	c0.5,1.1,1.8,3.3,2.9,4.8c1.1,1.5,2,3.2,2,3.6c0,0.5,0.4,1.3,1,1.8c0.5,0.5,2.7,4.1,4.9,8c4.6,8.3,4.3,7.6,8.1,13.9
	c1.6,2.7,3,5.2,3,5.6c0,0.4,0.2,0.8,0.5,0.9c0.6,0.3,5.7,9,6.3,10.8c0.4,1.1-4.8,4.1-7.1,4.1c-1.6,0-27.1-30-26.5-31.2
	c2.7-6.1-3.5-11.8-8.8-8.1c-2.3,1.6-3.7,0.2-2.4-2.4c0.5-1,1-2.4,1-3c0.1-2.1,5.4-13.7,7.3-15.8C251.6,50.2,252,50.3,254.3,54.3
	 M206.8,56.3c0.4,0.5,1.2,1,1.6,1c0.5,0,2.2,1,4,2.1c2.7,1.8,18.8,11.2,24,14l1.6,0.8l-2,5.3c-1.1,2.9-2.3,6.2-2.7,7.3
	c-0.8,2.4-2.6,4.4-6.1,7.1c-1.5,1.1-4.9,3.9-7.6,6.1c-2.7,2.3-5.9,3.2-6.1,4c-1.1,4.2-3.1,1.3-4.1-5.9c-0.4-2.9-1-6.1-1.4-7
	c-0.5-1.4-7.1-32.5-7.1-33.6c0-0.2,0.4-0.3,0.9-0.3c0.5,0,1.3-0.4,1.7-1c0.4-0.5,1.2-1,1.6-1C205.7,55.3,206.4,55.7,206.8,56.3
	 M196.1,57.7c1.6,0.6,1.7,0.7,0.5,0.7c-1.4,0.1-2.6,1.1-1.9,1.8c0.2,0.2,1.3-0.3,2.4-1.1c2.5-1.8,2.1-2.5,4.1,7.5
	c1,4.7,3,14.7,4.6,22.3c1.6,7.6,0,12.9,1.2,13.9c4.3,3.5-2.2,11.4-19.2,23.2c-0.8,0.5-2.6,2.1-4,3.4c-3.1,2.9-7.5,3.5-8.8,1.1
	c-0.4-0.7-8.4,0-7.6,0.2c2.4,0.5-7,0.5-19.4,0l-11.7-0.4l-1.5-3.3c-0.8-1.8-1.5-3.8-1.5-4.4c0-0.6-1-3.4-2.3-6.3
	c-2.6-5.9-2.6-6.1-1.2-7.3c0.7-0.5,0.9-1.5,0.8-2.7c-0.3-2,0.1-2.4,6.6-7.3l2.9-2.2c0,0,0.8-0.9,2-1.6c0.7-0.4,2.3-1.6,3.6-2.7
	c1.3-1.1,3.5-2.9,4.9-4c1.4-1.1,4.2-3.2,6.2-4.7c2-1.6,5.2-4,7.1-5.5c6.5-5,7.6-5.7,8.7-5.4c0.6,0.2,1,0,0.8-0.3
	c-0.2-0.3,0.3-0.9,1-1.3c0.8-0.4,1.2-0.9,1-1.1c-0.2-0.2-1,0.2-1.7,0.8c-0.7,0.6-1.3,1-1.3,0.8c0-0.2,1.7-1.7,3.7-3.2
	c2.1-1.6,5.6-4.3,7.8-6.1c6.9-5.4,8.9-6.7,9.6-6.2C193.9,56.8,195,57.4,196.1,57.7 M241,66.5c-1.5,5.3-2.8,7.1-4.2,5.4
	c-0.4-0.5-0.5-1-0.2-1c0.3,0,1-0.8,1.5-1.8C239.8,65.6,241.7,63.9,241,66.5 M241,79.2c0.2,3,0,3.3-2.7,5.5c-3.8,3.2-3.8,3.2-1.6-3
	c1.1-3,2.1-5.8,2.3-6.3C239.7,73.7,240.9,76,241,79.2 M244.2,84c1,0.5,1.6,1.1,1.4,1.8c-0.2,0.6-0.5,2.6-0.7,4.5
	c-0.4,3-0.7,3.5-2.5,4.4l-2.1,0.9l1.9-0.4c1.8-0.4,1.9-0.3,1.5,1.5c-0.2,1-1,7.4-1.9,14c-1.1,9.4-2.5,12.5-2.5,12.5s0.6,1.6,0.4,2
	c-0.1,0.4-1.2,1-2.5,1.3s-5.5,1.7-9.6,3.1c-7.7,2.6-9.2,2.9-9.2,1.9c0-0.4,0.4-0.7,1-0.7c1.2,0,1.3-1.1,0.2-1.5
	c-0.6-0.2-0.1-2.2,1.7-6.7c1.4-3.6,3.2-8.4,4-10.7c1.3-3.9,1.6-4.2,3.5-4.4c2.1-0.2,2.2-1.4,0.1-1.4c-1.3,0-0.7-2.1,3.5-12.1
	c1.1-2.7,8.4-10.4,10-10.6C242.5,83.3,243.3,83.6,244.2,84 M391.3,85c-1.5,1.5-1.9,1.6-2.5,0.8c-0.6-0.8-0.6-0.8-0.4,0.1
	c0.7,2.3-7,8.8-8.9,7.5c-1.9-1.2-2.4-0.1-0.6,1.2c1,0.7,1,0.9-0.2,2c-6.1,5.9-21.3,20.2-24,22.5c-1.8,1.6-4.6,4.2-6.2,5.8
	c-1.6,1.6-7.6,7.3-13.3,12.6c-5.7,5.3-11.7,11-13.4,12.6c-2.7,2.6-3.1,2.8-4.7,2.1c-1.9-0.9-1.8,0.3-3.5-26.1l-1-16.1l2.3-2
	c1.3-1.1,2.4-2.8,2.5-3.7c0.2-1.7,0.6-1.8,18.8-6.4c10.2-2.6,19.6-5,20.8-5.5c1.2-0.4,5.3-1.5,9.1-2.4c3.8-0.9,11.1-2.7,16.3-4.1
	C394,82.8,393.5,82.9,391.3,85 M251.5,84.8c0.6,1.2,4.6,5.9,9.3,11c10.8,12,14.8,17.3,12.9,17.3c-1.7,0-7.7,2.1-7.4,2.6
	c0.2,0.3,1,0.4,1.8,0.3c0.8-0.1-1,0.6-4.1,1.6c-3,1-6.7,2.3-8.1,2.9c-3.5,1.3-6.6,1.6-8.2,2.2c-1.7,0.6-3.3,1.4-3.5,1.6
	c-0.9,0.9-3.1,0.6-2.3-0.4c0.4-0.5,0.5-1.1,0.3-1.3c-0.4-0.4,0.9-12.4,1.6-14.1c0.2-0.5,0.5-1.7,0.6-2.5c0.9-8,1.8-11.5,3.1-12.6
	l1.4-1.2l-1.4,0.4c-1.1,0.3-1.4,0.1-1.2-0.8c0.1-0.6,0.4-2.5,0.6-4.2c0.3-2.5,0.7-3.1,1.8-3.3c0.8-0.2,1.6-0.3,1.9-0.4
	C250.8,83.9,251.2,84.3,251.5,84.8 M230.1,95.1c-0.4,1.2-1.2,3.3-1.9,4.7c-0.6,1.4-1.5,3.4-1.8,4.4c-0.4,1.1-1.2,1.8-2,1.8
	c-0.7,0-1.3,0.3-1.3,0.7c0,0.4,0.4,0.7,1,0.7c1.4,0,1.4-0.2-3.1,11.9c-4.6,12.4-4.6,12.3-5.7,6.8c-0.4-2.2-1.4-6.9-2.1-10.4
	c-1.3-6.1-1.1-8.4,0.7-8.2c1.3,0.2,2.1-0.2,2.1-1c0-1.2,2.6-3.8,3.3-3.3c0.3,0.2,0.5,0.1,0.4-0.3c-0.1-0.5,10.1-9.6,11-9.8
	C230.7,93,230.5,94,230.1,95.1 M310,109.3c0.5,0,0.9,2,1.1,5.7c0.2,3.1,0.7,8.8,1,12.5c0.4,3.8,0.8,9.6,1,13
	c0.2,3.4,0.5,7.3,0.7,8.6c0.6,4.8-3.8-0.2-7.4-8.3c-0.5-1.1-1.1-2.1-1.3-2.3c-0.3-0.2-2.7-4.3-5.4-9.1c-2.7-4.8-6-10.4-7.3-12.4
	c-2.9-4.4-2.9-4.1,0.3-5.2c1.4-0.5,2.3-1.1,1.9-1.3c-0.8-0.5,5-3,8.8-3.8c2.2-0.5,2.8-0.3,4.2,1C308.5,108.6,309.6,109.3,310,109.3
	 M125.7,109.4c1.3,1.3,2.8,4.8,5.7,12.9c0.4,1.3,1.3,3.6,1.9,5.3l1.1,3l-6.2-0.2c-3.4-0.1-14.6-0.5-24.8-0.9
	c-10.2-0.4-23.7-0.8-29.9-1.1c-6.3-0.2-12.1-0.4-13-0.4c-1.5,0-1.5,0-0.3-0.5c2.7-1.1,11.8-4,14.5-4.5c1.5-0.3,6.4-1.8,10.7-3.2
	c4.4-1.4,13.2-4.1,19.6-5.9c6.4-1.9,13.3-3.9,15.3-4.6c2-0.7,3.7-1.2,3.7-1.2C124.2,108,124.9,108.6,125.7,109.4 M210.9,113
	c0.2,1,0.8,3.8,1.3,6.3c2.3,10.9,2.3,11.4,0.5,12.2c-2.2,1-13.6,1.3-22.3,0.7l-7-0.5l4-3.2c2.2-1.8,4.4-3.7,5-4.2
	c0.5-0.6,1.7-1.4,2.5-2c0.8-0.5,3.8-2.9,6.6-5.2c2.8-2.3,4.5-3.6,3.9-2.8c-0.7,0.8-0.9,1.4-0.5,1.4c0.4,0,1.6-1.2,2.8-2.6
	C209.7,110.3,210.4,110.3,210.9,113 M289.8,115.4c3.4,6.4,12.1,21.4,14,24.2c1,1.5,1.9,3,1.9,3.3c0,0.3,1,2.1,2.3,4
	c3.9,5.7,1.6,3.4-8.1-8.1c-0.9-1-5.9-6.9-11.2-13.1l-9.6-11.2l3.7-1.3C288,111.6,287.7,111.5,289.8,115.4 M274.8,114.5
	c-0.7,0.3-1.7,0.6-2.3,0.6c-0.6,0-0.5-0.2,0.3-0.6c0.7-0.3,1.7-0.6,2.3-0.6C275.7,113.9,275.6,114.1,274.8,114.5 M279.7,117.8
	c1.2,1.5,3,3.5,3.9,4.5c0.9,1,2.7,3,3.9,4.5c1.3,1.5,3.2,3.7,4.2,4.8c1.1,1.1,3,3.4,4.3,5c1.3,1.6,4.2,4.9,6.4,7.4s4.9,5.5,5.9,6.7
	c1.5,1.7,1.8,2.6,1.5,3.9c-0.6,2.5-0.3,2.4-8.3,2.6c-20.5,0.5-63.9,1.3-64.1,1.1c-0.4-0.3,1.9-18.1,2.9-22.1
	c0.5-2.1,0.9-5.1,0.9-6.5l0-2.6l5.4-2.1c3-1.1,5.9-2.1,6.5-2.1c0.6,0,3.1-0.7,5.5-1.7c2.4-0.9,6.8-2.4,9.6-3.2
	c2.9-0.8,5.9-1.8,6.8-2.2C277.4,114.9,277.3,114.9,279.7,117.8 M237.9,141c-1,7.4-1.9,14.4-1.9,15.6l-0.2,2.1h-6.6h-6.6l-2.4-10.6
	c-3.2-14.1-3.6-13.4,8.8-17.5c5.1-1.7,9.6-3.1,10-3.1C239.5,127.5,239.1,132.4,237.9,141 M97.5,130.7c28.8,1,37.5,1.4,37.9,2.1
	c0.3,0.5,1,2.5,1.6,4.4c0.6,2,1.3,4.1,1.7,4.8c2,3.9,4.3,12,3.4,12.3c-3.7,1.4-4.1,10.2-0.5,12.1c2,1.1,2,1-0.8,8.7
	c-1.3,3.6-2.7,8-3.2,9.9c-0.5,1.9-1.6,5-2.4,7l-1.5,3.6l-2-2.8c-3.4-4.7-10.1-13.2-12.5-15.9c-5.5-6.2-6.2-7.5-6.2-10.9
	c0-4-2.1-5.7-5.4-4.5c-1.7,0.6-2.2,0.5-3.8-0.8c-1-0.8-2.2-1.5-2.5-1.6s-2.1-1.2-3.9-2.6c-1.8-1.4-3.4-2.6-3.6-2.6
	c-0.5,0-18.7-11.9-21-13.8c-1-0.8-2.7-1.9-3.7-2.5c-7.1-3.9-12.3-8.5-9.5-8.4C59.8,129.5,77,130,97.5,130.7 M151.5,132.7
	c6.2,0.3,14.9,0.7,19.4,0.7c7.1,0.1,7.9,0.2,6.7,1c-0.7,0.5-1.7,0.7-2.1,0.5c-0.5-0.3-0.6-0.1-0.4,0.6c0.3,0.7-0.3,1.5-1.7,2.5
	c-1.1,0.8-2.8,2.1-3.7,2.9c-9.4,8.5-17.8,14.3-19.4,13.5c-0.9-0.5-2.7-0.9-3.8-0.9c-1.2,0-2.1-0.1-2.1-0.2c0-0.1-1.7-4.9-3.8-10.7
	l-3.8-10.6l1.7,0C139.4,132.1,145.3,132.3,151.5,132.7 M61.1,134.7c1.6,1.1,3.8,2.5,4.9,3.2c1.1,0.7,2.4,1.6,2.9,1.9
	c8.6,5.9,15,10.1,16.6,10.9c1.1,0.6,2.9,1.8,4,2.7c1.1,0.9,5,3.6,8.6,5.9c5.8,3.7,6.6,4.4,6.6,6.1c0,1,0.3,2.4,0.7,3.1
	c0.7,1.3,0.6,1.6-5.2,12.6c-1.5,2.9-4.2,8-5.9,11.4c-1.7,3.4-3.6,6.9-4.1,7.8c-0.5,0.9-1.5,2.8-2.2,4.2
	c-5.9,11.9-13.8,26.6-14.2,26.5c-0.7-0.2-4.1-16.5-6-28.5c-0.3-2.1-1.5-8.4-2.6-14c-1.7-8.6-6.5-34.7-7-37.7c-0.1-0.5-0.3-1.4-0.5-2
	c-0.2-0.5-0.8-4-1.4-7.7C54.9,132.1,55.7,131,61.1,134.7 M200.3,134.2c16.1,0.4,15.6-0.3,11,15.6c-1,3.5-1.9,7-1.9,7.7
	c0,1.8,0.4,1.8-28.4,2l-26.7,0.2l-0.7-1.8c-0.6-1.6-0.5-1.9,0.7-2.5c0.8-0.4,2.4-1.7,3.7-2.8c2.1-1.9,13.5-11.3,17.3-14.2
	c1.2-0.9,1.8-1,2.5-0.5c0.6,0.5,1,0.5,1.3,0.1c0.2-0.4-0.1-0.9-0.8-1.3c-0.6-0.4-0.8-0.7-0.5-0.7c0.4,0,1,0.3,1.5,0.8
	c1.1,1.1,1.8,0.1,0.8-1c-1.2-1.4,1-2.4,4.6-2.1C186.5,133.8,193.4,134,200.3,134.2 M54.2,138.4c1.3,5.2,2.2,10.8,2.4,13.5
	c0,1.1,0.5,3.6,1,5.7c1,3.8,7.8,40.6,10.2,54.8c0.7,4.3,1.9,9.9,2.6,12.6c0.7,2.6,1.2,5,1.1,5.3c-0.2,0.5-31.4-7-40.2-9.6
	c-2.3-0.7-5.5-1.5-7.2-1.7c-5.6-0.7-6.2-3.5-2.4-11.5c1.3-2.6,2.7-5.9,3.2-7.4c1.5-4.1,8.1-20.6,9.5-23.4c0.7-1.4,1.6-3.9,2.1-5.5
	c0.5-1.8,1.3-3,2-3.2c0.7-0.2,1.1-0.7,0.9-1.1c-0.2-0.4,0.4-2,1.3-3.6c0.9-1.5,1.4-3,1.2-3.3c-0.2-0.3,1.3-4.7,3.3-9.9
	C52.5,131.5,52.5,131.5,54.2,138.4 M218.4,146.7c1.1,4.6,2.2,9.3,2.4,10.2l0.5,1.8h-5.3c-4.8,0-5.3-0.1-4.9-1.1
	c0.3-0.6,1.2-4.2,2.1-8c2.6-11,2.9-11.8,3.1-11.6C216.4,138.1,217.4,142,218.4,146.7 M308.6,159.6c-0.7,0.5-5,2.6-9.4,4.6
	c-4.5,2.1-8.6,4.1-9.1,4.5c-0.5,0.4-2.1,1.2-3.5,1.6c-1.4,0.5-3.9,1.7-5.5,2.7c-1.6,1-3.2,1.9-3.6,1.9c-0.4,0-1.7,0.5-3,1.2
	s-5.3,2.6-9.1,4.3c-3.8,1.7-7.6,3.6-8.5,4.2c-0.9,0.6-2.8,1.5-4.2,1.9c-1.4,0.5-3.3,1.3-4.2,1.9c-0.9,0.6-3.4,1.9-5.5,2.9
	c-11.3,5.2-10.7,6.2-8-14.9L237,160l5.6-0.1c3.1,0,13.8-0.3,23.8-0.5C301.3,158.5,310,158.6,308.6,159.6 M223,166.7
	c2.3,10,4.4,18.6,5.6,22.9c0.9,3.3,0.9,4,0.2,4.6c-1.9,1.4-2.5,3.5-1.6,5.3c0.8,1.6,0.8,1.9-0.4,3.1c-1.2,1.3-10.3,13.7-12.7,17.3
	c-0.6,0.9-2,2.7-3.1,4c-1.1,1.3-4.8,6.3-8.2,11c-3.4,4.8-7.1,9.7-8.3,11c-1.2,1.3-2.1,2.6-2.1,2.9c0,0.3-0.8,1.5-1.8,2.6
	c-1,1.2-2.3,2.8-2.9,3.7c-1.3,1.7-0.7-1.3,2.5-13.1c0.9-3.4,2-7.6,2.3-9.4c0.8-4,1.8-8,3.9-15.9c0.9-3.4,3.5-13.8,5.7-23.1
	s4.7-19.3,5.6-22.1s1.6-5.8,1.6-6.5c0-4.3-0.3-4.1,10.1-4.8l2-0.1L223,166.7 M235.4,160.5c0,1.7-3.9,29.6-4.2,29.9
	c-0.6,0.6-2.7-6.5-4.6-15.8c-1.5-7.1-2.7-12.2-3.2-13.5c-0.4-1,0.1-1.1,5.8-1.1C232.6,160,235.4,160.2,235.4,160.5 M207.8,164.4
	c-4.6,19.6-7.1,29.3-8.4,34c-0.9,3-1.9,7.4-2.3,9.7c-0.4,2.3-1.2,5.8-1.9,7.8c-0.7,2-3.2,12-5.7,22.3c-2.5,10.3-4.6,18.7-4.8,18.7
	c-0.5,0-2.6-4.4-2.6-5.6c0-0.6-1.2-3.6-2.6-6.8c-1.4-3.2-2.7-6.5-2.9-7.3c-0.2-0.9-0.6-2.2-1-2.9c-0.6-1.2-7.1-17.7-9.2-23.5
	c-0.4-1.3-1.8-4.8-3.1-7.8c-1.3-3-2.8-7-3.4-8.8c-2.3-6.6-8.3-22.2-9.3-24c-1-1.8-0.9-1.9,1.2-4c1.2-1.2,2.2-2.7,2.2-3.5
	c0-1.4,0.2-1.4,15.4-1.6c8.5-0.1,20.8-0.3,27.3-0.3l11.8-0.2L207.8,164.4 M148.9,169.7c0,0.7,0.7,2.5,1.5,4.1c0.8,1.6,2,4.5,2.7,6.4
	c0.6,2,1.5,4.5,2,5.5c0.5,1.1,2.4,6,4.3,11.1c1.9,5,3.6,9.4,3.9,9.8c0.3,0.4,1,2.3,1.5,4.3c0.6,2,1.8,5.1,2.6,6.8
	c0.9,1.7,1.9,4.4,2.4,6.1c0.5,1.6,1,3.2,1.3,3.6c0.3,0.4,1.8,4.5,3.5,9.1c1.7,4.6,3.8,9.9,4.6,11.7c0.8,1.8,1.7,4.1,1.9,5.2
	c0.5,2.2,0.3,2.1-3.8-3.3c-1.1-1.4-3.7-4.7-5.9-7.4s-4.7-5.9-5.7-7.2c-3.7-4.7-12.2-15.3-13.4-16.6c-6.4-6.8-10.2-13-9.8-15.9
	c0.7-5,1.8-14.9,2.5-23.1c1-10.5,1.2-11.4,2.7-11.4C148.5,168.5,148.9,168.9,148.9,169.7 M114.5,174.1c1.6,2,3.3,4.1,3.9,4.7
	c1,1,3.4,4.1,8,10.2c1.1,1.4,2.9,3.6,4.2,5c2.9,3,2.7,3.8-3.8,22.6c-2.6,7.3-5.1,14.9-5.6,16.8c-1.7,6.3-3.4,9.4-5,9
	c-0.8-0.2-5.7-1.4-10.9-2.7c-5.2-1.3-9.8-2.5-10.2-2.8c-0.7-0.5-0.4-2.6,4.6-24.8c0.5-2.3,1.4-6.4,1.9-9.1c0.5-2.7,1.7-8,2.6-11.7
	c0.9-3.8,2.2-10,3-13.8C109.1,168.8,110,168.3,114.5,174.1 M143.4,180.6c-0.6,5.3-1.4,12.9-1.8,16.8l-0.8,7.2l-2.8-3.8l-2.8-3.8
	l4.4-13.3c2.4-7.3,4.5-13.2,4.6-13.1C144.3,170.8,144,175.2,143.4,180.6 M106.2,174.8c-0.4,1-0.9,3.4-1.1,5.3
	c-0.2,1.9-1.3,6.9-2.4,11.1c-1.1,4.2-2.4,9.8-2.8,12.5c-0.9,5-6.7,32-7,32.3c-0.8,0.7-16.7-3.5-16.7-4.4c0-0.5,5.3-10.9,7.5-14.8
	c0.5-0.9,1.3-2.4,1.8-3.3c4.2-8.7,13.3-25.9,14.3-27.2c0.7-0.9,1.2-2,1.2-2.6c0-0.6,1-2.7,2.3-4.6c1.3-2,2.5-4.2,2.7-5
	c0.2-0.8,0.5-1.3,0.7-1.2C106.7,172.8,106.5,173.8,106.2,174.8 M136.5,201.1c0.7,1.2,2,2.9,2.7,3.8c1.5,1.8,1.3,5.6-0.7,17.8
	c-0.3,2.1-1,8.2-1.4,13.4s-0.9,9.8-1.2,10.2c-0.5,0.8-14.7-2.2-16.2-3.4c-0.3-0.2,11-33.8,11.5-34.5c0.5-0.6,1.2-3,2.2-7.6
	C134.1,198.5,134.9,198.6,136.5,201.1 M228.1,205.3c-0.5,1-1.5,3.8-2.3,6.1c-6.8,21.3-9.6,30-10.7,32.4c-0.7,1.5-1.4,3.8-1.5,5.1
	c-0.2,1.2-1.1,4.5-2.2,7.3c-1.9,5.1-9.8,29.4-9.8,30.3c0,1.6-4.2,10.8-4.9,10.8c-0.8,0-3.5-7.7-3.5-10c0-0.6-0.7-3.2-1.6-5.8
	c-3.5-10.4-5.1-17.5-4.2-19.1c0.4-0.8,0.6-2,0.4-2.6c-0.4-1.1,5-9.5,7.9-12.2c0.8-0.7,1.5-1.7,1.5-2.1c0-0.4,1.2-2.2,2.8-4.1
	c1.5-1.8,3.5-4.4,4.4-5.7c3.2-4.6,5.1-7.2,11.1-14.8c0.9-1.2,2.6-3.6,3.9-5.3C226.5,204.9,230.7,200.1,228.1,205.3 M147.8,215.5
	c0.8,0.8,4.2,5.1,7.6,9.5c3.4,4.4,8.5,10.8,11.3,14.2c5.8,7.2,5.9,7.2,8.9,11.1c1.2,1.6,3.3,4.1,4.5,5.5c3,3.5,2.5,3.5-10.7,0
	c-6.1-1.6-12.5-3.3-14.3-3.6c-3.2-0.7-9.9-2.5-15-4l-2.6-0.8l2.1-18.5c1.2-10.2,2.1-19.1,2.1-19.8c0-0.9,0.7-0.4,2.3,1.8
	C145.4,212.6,147,214.7,147.8,215.5 M107.3,219.2c-1.6,1.6-1.6,1.9-0.3,3.8c1.9,2.7,5.5,1.5,5.5-1.9
	C112.5,218.1,109.5,217,107.3,219.2 M43.3,225.4c19.3,5,20.4,5.3,25.2,6.2c4.4,0.8,5,2.5,2.2,6.5c-0.8,1.2-3.9,7-6.9,12.9
	c-3,5.9-5.8,11.2-6.3,11.8c-0.5,0.6-0.9,1.4-0.9,1.8c0,2-1.6,4-3.2,4c-2,0-0.9,1.5-16.7-22.3c-7-10.5-13.7-20.5-14.9-22.2
	C17.7,218.4,16,218.3,43.3,225.4 M21.4,226.3c1.1,1.6,3,4.3,4.1,6.1c1.2,1.7,4.3,6.4,7,10.5c2.7,4,6.9,10.4,9.4,14.1
	c2.5,3.7,5.4,8.1,6.4,9.7c1.6,2.3,1.8,3.1,1.2,4.1c-1.1,1.7-0.9,3.4,0.6,5.3c1.6,2,1.7,0.8-2.9,25.8c-1.6,8.8-3.1,17.3-3.4,19.1
	c-0.3,1.7-0.9,3.5-1.4,3.9c-3.8,3-4.2,3.7-3.8,6.3c0.3,2.1,0.2,2.7-1.1,3.7c-0.8,0.7-3.8,3.8-6.6,7c-7.9,8.9-7.3,9.4-7.8-5.5
	c-0.2-5.9-0.8-16.6-1.3-23.7c-0.5-7.2-1.2-22.5-1.6-34.1c-0.7-21.7-1.8-45.8-2.4-53.3C17.5,220.3,17.2,220.3,21.4,226.3 M82.4,235.4
	c4.2,1.1,8.2,2,8.8,2c1.5,0,1.4,0.6-0.4,7.9c-0.8,3.3-1.9,8.4-2.3,11.3c-0.5,2.9-1.3,6.9-2,8.9c-0.6,2.1-1.7,6.4-2.3,9.6
	c-1,4.7-2.2,7.8-2.2,5.4c0-0.8-7-39.2-7.7-42.3c-0.6-2.4-0.4-4.6,0.2-4.6C74.6,233.5,78.1,234.4,82.4,235.4 M74.1,246.2
	c0.7,2.9,1.7,8,2.3,11.4s1.8,10.1,2.6,14.9l1.6,8.7l-1.7,2c-1.4,1.7-1.6,2.5-1.4,4.7c0.3,2.5,0.1,3-2.9,6.5
	c-6.1,7.2-10.9,11.7-11.2,10.7c-0.8-2.2-6.8-24.1-7.2-26.1c-0.3-1.6-0.1-2.5,0.6-3.1c1.3-1.1,1.3-3.2,0.1-5
	c-0.8-1.1-0.8-1.6,0.2-3.6c0.6-1.2,2.8-5.6,4.9-9.7c2.1-4.1,4.3-8.2,5-9c0.7-0.9,1.2-2,1.2-2.5c0-1.9,4.2-8,4.4-6.4
	C72.8,240.3,73.4,243.3,74.1,246.2 M106.2,241.3c5.8,1.5,10.6,2.7,10.6,2.8c0.3,0.3-2,7.8-6,19.3c-2.4,7-4.7,13.6-5.1,14.7
	c-1.1,3.1-15.3,7.3-17.7,5.2c-0.7-0.6-1.8-1.4-2.4-1.9c-1.1-0.8-1.1-1.1-0.1-5.1c1.7-7,3.9-16.7,6.2-27.5c1.5-7.1,2.4-10.2,3.1-10.2
	C95.3,238.7,100.4,239.9,106.2,241.3 M124.9,246.3c2,0.5,5.3,1.2,7.3,1.6c4.1,0.8,4.1,0.7,3.1,6.1c-0.3,1.8-1,6.7-1.6,11
	c-0.5,4.3-1.1,7.9-1.3,8.1c-0.7,0.7-25.1,6.8-25.1,6.3c0-0.7,5.8-18,7.6-22.5c1.2-3.1,2.2-6.1,2.2-6.7c0-2.4,1.9-5.7,3.1-5.2
	C120.8,245.2,122.9,245.8,124.9,246.3 M160.6,255.3c21.1,5.2,21.1,5.3,18.2,6c-7.7,2-15.7,4.1-19.8,5.2c-2.5,0.7-6,1.6-7.8,1.9
	c-1.8,0.4-5.9,1.4-9.1,2.3c-7.7,2.2-7.7,2.2-7.3-0.4c0.2-1.2,0.8-6.4,1.5-11.7c1-8.2,1.3-9.5,2.2-9.1
	C139,249.9,149,252.4,160.6,255.3 M184.8,264c0.2,0.2,2.1,6.6,4.1,14.1c2,7.5,4.1,15,4.5,16.6c0.8,2.9,0.8,3-1,5.1
	c-1,1.1-1.8,2.5-1.8,2.9c0,0.6-4.2,1.5-14.8,3.3c-8.1,1.3-17.3,3-20.3,3.6c-3,0.7-8.2,1.5-11.4,1.9c-3.2,0.4-7.6,1.1-9.7,1.7
	c-5,1.3-4.8,1.5-3.9-4.6c0.9-6.1,2.7-21.9,3.2-29c0.3-4.4,0.6-5,1.8-5.4c0.8-0.2,8.4-2.2,17-4.3c8.6-2.2,16.8-4.4,18.2-4.9
	C176,263,183.5,262.5,184.8,264 M132.2,280.2c-0.1,2.8-0.7,7.8-1.2,11.2c-0.5,3.4-1.4,9.9-1.9,14.5c-1.1,10,0.2,8.6-9.4,10l-8,1.2
	l-3.4-3.9c-1.9-2.1-4.7-5.1-6.4-6.7c-3-2.8-3-2.8-2.2-5.2c0.5-1.3,1.3-3.9,1.9-5.7c0.6-1.8,1.9-5.7,3-8.8l1.9-5.5l3.8-0.8
	c4.7-1,10.4-2.5,15.5-4C132.6,274.4,132.5,274.3,132.2,280.2 M54.8,279.2c0.2,0.8,0.8,3.7,1.4,6.3c0.6,2.7,1.3,5.5,1.7,6.2
	c0.3,0.7,1.5,4.5,2.6,8.4l2,7.1l-1.5,2c-0.8,1.1-4.3,4.9-7.6,8.4s-6.5,7-7,7.7c-0.5,0.7-1.1,1.1-1.3,0.9c-0.5-0.3,3.3-22.8,5.8-33.9
	c0.7-3.2,1.5-7.8,1.7-10.2C52.8,277.7,54.1,276.1,54.8,279.2 M104.7,282.6c0,0.2-0.7,2-1.7,4.1c-0.9,2.1-2.2,5.7-2.9,8
	c-2.3,8.1-1.7,7.9-7.4,1.9c-3.5-3.6-4.8-5.5-4.4-6c0.3-0.4,0.7-1.6,0.8-2.7C89.4,285.9,104.7,280.7,104.7,282.6 M83.9,292.3
	c2.7,0,3.2,0.3,6.2,3.6c1.8,2,4.1,4.4,5,5.5c1,1,1.8,2.2,1.8,2.5c0,0.6-5.2,16.8-5.4,16.8c-0.1,0-5.1,0.9-11.1,1.9
	c-11.8,2.1-12.1,2-12.1-0.3c0-0.9-0.9-4.1-2-7.2c-2.7-7.7-3.6-5.9,9.3-19.3c1.7-1.8,3.1-3.5,3.1-3.8c0-0.4,0.5-0.4,1.1-0.1
	C80.5,292.1,82.3,292.3,83.9,292.3 M109.6,317.3c-0.2,0.2-3.9,1-8.4,1.7l-8,1.4l2.6-7.8l2.6-7.8l5.7,6.1
	C107.3,314.3,109.7,317.2,109.6,317.3 M188.6,305.8c-0.9,0.4-3.7,1.7-6.2,2.8s-5.3,2.3-6.2,2.6c-0.9,0.3-3.9,1.6-6.6,3
	c-2.7,1.4-5.4,2.5-5.9,2.5s-1.2,0.3-1.5,0.6s-4.6,2.3-9.4,4.3c-4.8,2-9.1,4-9.5,4.3s-2.2,1-3.9,1.5c-1.7,0.5-4,1.5-5.1,2.2
	c-3.3,2.2-6.5,0.2-6-3.8c0.2-1.6,0.5-4.6,0.8-6.6l0.4-3.6l6.3-1.2c3.5-0.6,8.3-1.5,10.8-1.8c2.5-0.4,7.6-1.2,11.4-2
	c14.5-2.8,19.9-3.7,22.1-3.8c1.3,0,3.7-0.5,5.5-1C189.6,305,190.9,304.9,188.6,305.8 M65.3,317.2c2.3,8,2.4,7.6-2.7,8.6
	c-6.6,1.3-15.8,2.5-16.1,2c-0.1-0.2,1-1.7,2.5-3.4c1.5-1.6,5.2-5.6,8.2-8.9c3.7-4,5.6-5.7,5.9-5.1C63.4,310.8,64.4,313.9,65.3,317.2
	 M127.9,317.9c-0.2,1-0.5,3.8-0.8,6.3c-0.4,4.2-1.1,6.2-2.1,6.2c-0.2,0-2.9-2.7-6-6.1l-5.6-6.1l2-0.2c1.1-0.1,3.9-0.6,6.3-1
	C128.1,315.8,128.3,315.8,127.9,317.9 M117.4,325l5.9,6.3l-0.8,2.3c-0.8,2.3-6,5.9-14.6,9.9c-1.6,0.8-3.8,2-4.9,2.8
	c-1.1,0.8-6.1,3.7-11.2,6.5c-5.1,2.8-9.4,5.3-9.6,5.6c-2,3.2-1.9-1.2,0-5.6c0.9-2,1.9-5.1,2.3-6.8c0.3-1.8,1.2-4.6,2-6.2
	c0.7-1.6,2.4-6.2,3.6-10.1c1.2-3.9,2.6-7.3,2.9-7.5c0.5-0.3,14.8-3.1,17.8-3.5C111.3,318.7,114.2,321.5,117.4,325 M90.2,324.7
	c-0.9,2.2-2.2,5.9-7.8,22.8c-1.9,5.6-3.5,10.2-3.7,10.2s-1.6-4.7-3.2-10.6c-1.6-5.8-3.5-12.7-4.4-15.3c-0.8-2.6-1.5-5-1.5-5.3
	c0-0.6,8.4-2.3,16.3-3.2c2.3-0.3,4.4-0.6,4.7-0.6C90.8,322.6,90.6,323.6,90.2,324.7 M70.2,334.6c1.5,4.5,2.7,8.6,2.7,9.2
	c0,0.6,0.7,3.2,1.6,5.7c0.9,2.5,1.8,5.6,2,6.9l0.5,2.3l-4.5-3.9c-5.1-4.4-7.3-6.3-10.4-9.1c-1.2-1.1-5.1-4.4-8.7-7.5
	c-8.4-7.2-8.5-8.6-0.2-9.4c3.6-0.3,13.9-1.9,14.3-2.2C67.5,326.5,68.7,330.2,70.2,334.6 M60.8,346.6c9,7.7,14.7,13,14.7,13.7
	c0,1.4-0.8,1.8-15.9,7.8c-6.4,2.6-13.2,5.4-15,6.2c-1.8,0.8-4.1,1.7-5.1,2c-1,0.3-3.5,1.3-5.5,2.3c-4.4,2.2-4.6,2.2-7.5,0.4
	l-2.3-1.5l0-13.1l0-13.1l2.4-2.6c1.3-1.4,5-5.3,8.1-8.7C43.1,330.9,42.2,330.6,60.8,346.6 M123.7,339.1c0.8,0.8,1.8,1.6,2.2,1.8
	c0.4,0.2,1.3,10.8,2.1,25.6c0.8,14,1.8,29,2.1,33.5c2.6,31.8,2.5,33.3-1.1,27.8c-1.5-2.3-4.3-6.1-12.6-17.1
	c-3.7-4.9-9.5-12.8-10.6-14.5c-0.6-0.9-1.9-2.6-2.8-3.7c-1.4-1.6-7.6-9.9-11.7-15.6c-1.2-1.7-3.9-5.3-7.3-9.8
	c-4.5-5.9-3.9-6.6,16.7-17.6c3.1-1.7,6-3.3,6.4-3.6c0.4-0.3,2-1.3,3.6-2.1c1.6-0.8,4.7-2.6,7.1-3.8c2.3-1.3,4.3-2.3,4.4-2.4
	C122.2,337.6,122.9,338.2,123.7,339.1 M76.1,375.8c-0.7,6.1-1.8,13.7-2.3,16.8s-1,7.2-1,9c0,1.8-0.6,7.6-1.3,12.8
	c-0.7,5.2-2,15.6-2.9,23.1c-3.8,31.1-4.6,36.7-5,36.3c-0.3-0.3-1.5-3.1-2.9-6.3c-1.3-3.2-2.7-6.1-3-6.5c-0.3-0.3-0.6-1.1-0.6-1.6
	c0-0.6-1-2.9-2.2-5.3c-1.2-2.3-2.4-5-2.7-5.9c-0.3-0.9-1.5-3.6-2.6-6.1c-1.2-2.5-4.1-9.2-6.5-14.8c-2.4-5.6-5-11.5-5.9-13
	c-0.9-1.5-1.6-3.4-1.6-4.2c0-0.8-0.3-1.6-0.6-1.8c-0.3-0.2-2.4-4.6-4.6-9.8l-4-9.4l1.3-1.3c0.8-0.8,1.3-2.2,1.3-3.4
	c0-2.2,1.1-2.8,11.9-6.8c1.4-0.5,4.6-1.9,7.2-3.2c2.6-1.2,5.2-2.3,5.9-2.3c0.7,0,2-0.5,3-1.1c4.7-2.8,18.5-7.8,19.4-7.1
	C77.3,364.5,77.2,366.7,76.1,375.8 M87.8,374.8c4.3,5.8,8.8,11.9,10.1,13.5c1.2,1.6,3.4,4.5,4.8,6.5c4.9,6.8,6.9,9.4,8,10.7
	c0.6,0.7,1.1,1.5,1.1,1.8c0,0.3,1.1,1.8,2.4,3.4c1.3,1.6,3.3,4.1,4.3,5.4c1,1.4,3.3,4.5,5.2,7c5.5,7.4,5.8,8,5,9.5
	c-0.4,0.7-0.6,1.9-0.4,2.6c0.2,0.9-0.4,1.6-2,2.7c-1.3,0.8-3.4,2.2-4.7,3.1c-1.3,0.9-5.3,3.4-8.7,5.5c-9.1,5.6-12.2,7.6-15.2,9.6
	c-1.5,1-2.9,1.8-3.2,1.8c-0.3,0-0.9,0.4-1.3,0.9c-0.7,0.9-11.2,7.5-14.9,9.4c-0.9,0.5-2.3,1.4-3,2.1c-2.5,2.3-8.3,5.3-8.9,4.7
	c-0.4-0.4-0.2-2.7,0.4-6c0.6-3,1.3-9.8,1.7-15c0.4-5.3,0.9-11.1,1.3-13c0.8-4.6,3.1-23.2,6.5-52.4c1.6-13.3,3.1-24.2,3.3-24.2
	C79.8,364.2,83.5,369,87.8,374.8"/>
</svg>
